<?xml version="1.0" encoding="UTF-8"?>
<svg xmlns="http://www.w3.org/2000/svg" xmlns:xlink="http://www.w3.org/1999/xlink" width="512pt" height="512pt" viewBox="0 0 512 512" version="1.1">
<g id="surface1">
<path style=" stroke:none;fill-rule:nonzero;fill:rgb(0%,0%,0%);fill-opacity:1;" d="M 242.25 0.75 C 234.101562 1.175781 231.425781 1.449219 221.25 2.75 C 215.375 3.523438 202.300781 5.773438 201.726562 6.125 C 201.625 6.199219 200.25 6.523438 198.699219 6.851562 C 191.476562 8.375 180.25 11.574219 172.75 14.25 C 171.175781 14.800781 169.324219 15.449219 168.625 15.648438 C 167.949219 15.875 167.273438 16.125 167.125 16.25 C 167 16.351562 166.101562 16.699219 165.125 17 C 164.175781 17.300781 163.273438 17.648438 163.125 17.75 C 163 17.824219 162.324219 18.125 161.625 18.351562 C 160.949219 18.601562 159.800781 19.074219 159.074219 19.398438 C 158.375 19.726562 157.699219 20 157.625 20 C 157.023438 20 146.324219 24.925781 140.625 27.824219 C 138.699219 28.800781 136.675781 29.824219 136.125 30.101562 C 135.574219 30.375 135.074219 30.675781 135 30.75 C 134.925781 30.824219 134.25 31.199219 133.5 31.574219 C 132.75 31.949219 131.351562 32.726562 130.375 33.273438 C 129.425781 33.851562 127.851562 34.75 126.875 35.324219 C 122.800781 37.675781 118.476562 40.425781 113.550781 43.726562 C 112 44.773438 110.425781 45.824219 110.050781 46.050781 C 109.675781 46.300781 109.148438 46.648438 108.875 46.875 C 108.074219 47.476562 105.273438 49.523438 103.449219 50.824219 C 102.550781 51.476562 101.648438 52.148438 101.449219 52.300781 C 101.273438 52.476562 100.351562 53.226562 99.375 53.949219 C 96.574219 56.050781 96.199219 56.351562 95.648438 56.875 C 95.375 57.148438 94.625 57.75 94 58.226562 C 93.375 58.699219 92.375 59.523438 91.75 60.050781 C 90.101562 61.523438 89.800781 61.773438 87.75 63.5 C 86.726562 64.375 85.324219 65.625 84.625 66.25 C 83.949219 66.898438 82.476562 68.25 81.375 69.273438 C 76.425781 73.851562 67.550781 83 63.625 87.601562 C 62.949219 88.398438 62.074219 89.398438 61.699219 89.851562 C 59.976562 91.851562 56.300781 96.273438 55.75 97 C 55.398438 97.449219 54.824219 98.175781 54.476562 98.601562 C 54.125 99.023438 53.574219 99.773438 53.25 100.25 C 52.925781 100.726562 52.574219 101.175781 52.5 101.25 C 52.273438 101.425781 48.175781 106.976562 47.601562 107.875 C 47.351562 108.273438 47.050781 108.675781 46.976562 108.75 C 46.851562 108.851562 43.925781 113.125 41 117.5 C 40.050781 118.925781 38.75 121.050781 38.75 121.148438 C 38.75 121.226562 38.425781 121.75 38.023438 122.324219 C 37.148438 123.625 36.523438 124.648438 36 125.625 C 35.773438 126.023438 35.148438 127.101562 34.625 128 C 28.351562 138.675781 21.449219 153.101562 17.101562 164.75 C 16.75 165.648438 16.324219 166.699219 16.125 167.125 C 15.175781 169.199219 11.148438 181.726562 9.75 187 C 9.375 188.449219 8.976562 189.824219 8.875 190.050781 C 8.773438 190.273438 8.425781 191.625 8.101562 193.050781 C 5.726562 203.023438 4.851562 207.199219 3.898438 213.25 C 3.550781 215.375 3.226562 217.449219 3.125 217.875 C 3.050781 218.273438 2.699219 220.875 2.375 223.625 C 2.050781 226.375 1.726562 228.898438 1.648438 229.25 C 1.351562 230.476562 0.75 240.5 0.5 248.273438 C 0.324219 253.648438 0.324219 258.601562 0.5 263.773438 C 0.75 271.25 1.398438 281.949219 1.648438 282.824219 C 1.726562 283.050781 2.050781 285.523438 2.375 288.324219 C 3.375 296.898438 6.273438 312.824219 7.550781 316.75 C 7.699219 317.226562 8.074219 318.675781 8.398438 320 C 8.925781 322.273438 9.726562 325.148438 11.074219 329.75 C 11.925781 332.675781 16 344.824219 16.25 345.125 C 16.351562 345.25 16.625 346 16.875 346.75 C 17.125 347.5 17.449219 348.449219 17.625 348.875 C 18.773438 351.523438 20 354.523438 20 354.675781 C 20 354.800781 20.175781 355.199219 20.398438 355.625 C 20.625 356.023438 20.949219 356.773438 21.125 357.273438 C 21.300781 357.773438 21.824219 358.976562 22.25 359.898438 C 22.699219 360.851562 23.300781 362.175781 23.625 362.875 C 25.824219 367.726562 31.851562 379.351562 34.550781 383.949219 C 34.925781 384.601562 35.523438 385.625 35.875 386.25 C 36.648438 387.601562 37.375 388.824219 38.125 390 C 42.148438 396.324219 45.273438 400.976562 48.375 405.25 C 49.199219 406.375 50.050781 407.550781 50.25 407.851562 C 50.800781 408.648438 53.75 412.523438 54.476562 413.398438 C 54.824219 413.824219 55.398438 414.550781 55.75 415 C 57.351562 417.074219 61.351562 421.875 63 423.726562 C 63.351562 424.101562 64.25 425.125 65 426 C 69.726562 431.425781 80.75 442.449219 86 447 C 87.175781 448 88.300781 449 88.523438 449.226562 C 88.75 449.449219 89.375 449.976562 89.898438 450.425781 C 90.449219 450.851562 91.773438 451.976562 92.875 452.875 C 96.601562 455.976562 96.773438 456.101562 99.773438 458.449219 C 101.949219 460.125 104.925781 462.324219 107.5 464.148438 C 108.25 464.675781 108.925781 465.175781 109 465.25 C 109.425781 465.726562 119.101562 472.074219 121.226562 473.300781 C 121.699219 473.574219 122.726562 474.199219 123.5 474.726562 C 124.273438 475.25 125.25 475.851562 125.648438 476.050781 C 126.050781 476.25 127.101562 476.851562 128 477.375 C 134.875 481.425781 145.425781 486.800781 152.5 489.851562 C 159.773438 493.023438 162.925781 494.324219 165.101562 495.023438 C 165.925781 495.300781 166.699219 495.625 166.851562 495.726562 C 167 495.851562 167.800781 496.148438 168.625 496.375 C 169.449219 496.625 170.476562 496.949219 170.875 497.148438 C 171.300781 497.324219 173.25 498 175.25 498.625 C 177.25 499.273438 179.273438 499.949219 179.75 500.148438 C 180.226562 500.324219 181.351562 500.648438 182.25 500.875 C 183.148438 501.101562 184.101562 501.375 184.375 501.5 C 185 501.773438 188.550781 502.726562 194.25 504.125 C 202.875 506.226562 207.726562 507.226562 213.699219 508.125 C 215.925781 508.476562 218.226562 508.851562 218.824219 509 C 219.398438 509.125 221.625 509.398438 223.75 509.625 C 225.875 509.851562 228.199219 510.125 228.875 510.25 C 233.949219 511.199219 257.375 511.800781 268.875 511.273438 C 277.574219 510.851562 289.324219 509.75 293.75 508.898438 C 294.773438 508.699219 296.925781 508.351562 298.5 508.125 C 300.074219 507.898438 301.800781 507.601562 302.324219 507.476562 C 302.824219 507.351562 304.675781 506.949219 306.449219 506.625 C 311.648438 505.625 319.550781 503.800781 322.125 503 C 322.949219 502.726562 324.300781 502.351562 325.125 502.148438 C 326.601562 501.800781 330.425781 500.648438 334.375 499.398438 C 340.648438 497.425781 352.300781 493.050781 356.425781 491.101562 C 357.125 490.773438 357.800781 490.5 357.875 490.5 C 357.949219 490.5 358.675781 490.199219 359.449219 489.851562 C 360.226562 489.5 361.5 488.925781 362.25 488.574219 C 365.773438 486.976562 373.75 482.976562 377.25 481.050781 C 379.375 479.898438 381.75 478.601562 382.5 478.175781 C 383.25 477.773438 384.273438 477.175781 384.75 476.875 C 385.226562 476.574219 386.351562 475.898438 387.25 475.375 C 388.148438 474.875 389.273438 474.175781 389.75 473.875 C 390.226562 473.574219 391.226562 472.949219 391.976562 472.476562 C 394.476562 470.925781 398.125 468.550781 398.875 468 C 399.300781 467.699219 401.25 466.324219 403.25 464.925781 C 408.273438 461.398438 408.125 461.5 409.699219 460.25 C 410.476562 459.625 411.574219 458.800781 412.125 458.398438 C 414.398438 456.726562 423.601562 449.101562 425.851562 447.023438 C 432.851562 440.574219 439.976562 433.523438 444.25 428.875 C 445.148438 427.898438 446.351562 426.601562 446.925781 425.949219 C 448.101562 424.699219 452.148438 419.925781 453.5 418.25 C 453.976562 417.648438 454.675781 416.800781 455.023438 416.375 C 455.375 415.976562 456.851562 414.101562 458.273438 412.25 C 459.699219 410.398438 460.949219 408.75 461.050781 408.625 C 461.324219 408.300781 462.800781 406.25 464.375 404 C 465.074219 403.023438 465.976562 401.75 466.375 401.175781 C 466.800781 400.601562 467.375 399.75 467.625 399.300781 C 467.898438 398.875 468.199219 398.5 468.300781 398.5 C 468.398438 398.5 468.5 398.398438 468.5 398.25 C 468.5 398.125 469.199219 396.976562 470.050781 395.699219 C 472.300781 392.300781 473.148438 390.949219 473.5 390.25 C 473.675781 389.898438 473.898438 389.574219 474 389.5 C 474.101562 389.425781 474.425781 388.925781 474.726562 388.375 C 475.023438 387.824219 475.675781 386.699219 476.175781 385.875 C 481.101562 377.601562 487.476562 365.101562 490.625 357.5 C 490.949219 356.75 491.625 355.175781 492.125 354 C 492.625 352.824219 493.300781 351.125 493.625 350.199219 C 493.949219 349.25 494.300781 348.351562 494.425781 348.199219 C 494.824219 347.550781 498.625 336.648438 500 332.25 C 500.574219 330.398438 501.199219 328.300781 501.425781 327.625 C 502.925781 322.800781 505.476562 312.175781 506.625 306 C 506.976562 304.148438 507.351562 302.300781 507.476562 301.875 C 507.601562 301.476562 507.898438 299.726562 508.125 298 C 508.351562 296.273438 508.648438 294.476562 508.773438 293.976562 C 508.898438 293.476562 509.273438 290.601562 509.625 287.601562 C 509.949219 284.574219 510.351562 281.175781 510.476562 280 C 511.675781 269.523438 511.675781 242.949219 510.5 232.125 C 509.601562 223.976562 508.976562 218.824219 508.773438 218.050781 C 508.625 217.523438 508.351562 215.773438 508.125 214.125 C 507.898438 212.476562 507.625 210.699219 507.476562 210.199219 C 507.351562 209.675781 506.949219 207.773438 506.625 205.949219 C 506.273438 204.125 505.675781 201.226562 505.273438 199.5 C 504.875 197.773438 504.273438 195.074219 503.898438 193.5 C 503.523438 191.925781 503.125 190.398438 503 190.125 C 502.875 189.851562 502.476562 188.550781 502.148438 187.25 C 500.199219 179.699219 494.925781 164.25 492.601562 159.324219 C 492.273438 158.625 492 157.949219 492 157.851562 C 492 157.773438 491.699219 157 491.324219 156.148438 C 490.976562 155.324219 490.273438 153.726562 489.800781 152.625 C 488.449219 149.476562 483.949219 140.199219 482.351562 137.25 C 481.300781 135.300781 478.324219 129.898438 478.125 129.550781 C 478 129.300781 477.449219 128.324219 476.898438 127.375 C 475.898438 125.550781 475.148438 124.324219 473.949219 122.574219 C 473.574219 122 473.25 121.449219 473.25 121.351562 C 473.25 121.25 472.976562 120.824219 472.648438 120.398438 C 472.351562 119.976562 471.875 119.25 471.625 118.773438 C 471.398438 118.300781 471.101562 117.800781 470.976562 117.648438 C 470.851562 117.5 470.199219 116.523438 469.5 115.5 C 468.824219 114.476562 468.175781 113.5 468.074219 113.375 C 467.976562 113.226562 467.199219 112.125 466.375 110.925781 C 465.550781 109.699219 464.699219 108.476562 464.5 108.175781 C 463.898438 107.300781 461.023438 103.425781 460.574219 102.824219 C 460.324219 102.523438 459.398438 101.300781 458.5 100.101562 C 456 96.800781 449.550781 88.949219 447.5 86.75 C 447.300781 86.523438 445.949219 85.023438 444.5 83.425781 C 440.199219 78.625 428.398438 67.074219 424.699219 64.050781 C 424.425781 63.824219 423.773438 63.25 423.273438 62.773438 C 421.351562 61 415.351562 56.125 410.601562 52.5 C 409.800781 51.875 409.023438 51.273438 408.875 51.175781 C 404.25 47.574219 390.773438 38.550781 387.75 37 C 387.398438 36.824219 387.074219 36.601562 387 36.5 C 386.925781 36.398438 386.375 36.050781 385.75 35.75 C 385.125 35.449219 384.574219 35.101562 384.5 35 C 384.425781 34.925781 384.050781 34.675781 383.625 34.449219 C 382.800781 34.050781 375.101562 29.851562 374.5 29.5 C 373.699219 29.023438 364.074219 24.300781 363.25 24 C 362.773438 23.800781 362.324219 23.574219 362.25 23.5 C 362.175781 23.425781 361.5 23.101562 360.75 22.773438 C 360 22.449219 358.476562 21.800781 357.375 21.324219 C 352 18.976562 346.5 16.800781 342.875 15.601562 C 341.925781 15.273438 340.898438 14.898438 340.625 14.773438 C 339.875 14.398438 332.273438 11.925781 328.625 10.851562 C 321.601562 8.773438 312.550781 6.574219 306.125 5.375 C 304.351562 5.023438 302.726562 4.699219 302.523438 4.625 C 302.324219 4.550781 300.324219 4.199219 298.050781 3.851562 C 295.773438 3.523438 293.851562 3.199219 293.773438 3.125 C 293.675781 3.074219 291.476562 2.800781 288.875 2.523438 C 286.25 2.226562 283.449219 1.875 282.625 1.75 C 277.425781 0.851562 252.101562 0.25 242.25 0.75 Z M 183 99.625 C 213.425781 100.023438 222.351562 100.199219 223.75 100.425781 C 224.226562 100.5 226.601562 101.574219 229 102.824219 C 234.199219 105.5 244.726562 110.976562 248.75 113.101562 C 250.351562 113.949219 252.625 115.125 253.824219 115.75 L 256 116.875 L 258.175781 115.75 C 259.375 115.125 262.601562 113.425781 265.375 111.976562 C 270.550781 109.25 275.5 106.675781 283 102.800781 C 285.398438 101.574219 287.773438 100.5 288.25 100.398438 C 289.5 100.199219 298.398438 100.023438 328 99.625 C 365.875 99.101562 363.449219 99.101562 364.773438 99.675781 C 365.398438 99.949219 366.273438 100.625 366.75 101.175781 C 367.199219 101.699219 370.023438 107.023438 373.050781 113 C 376.074219 118.976562 380.925781 128.601562 383.875 134.375 C 386.800781 140.148438 391.75 149.925781 394.875 156.125 C 398 162.300781 403.375 172.949219 406.824219 179.75 C 410.25 186.550781 414 194 415.148438 196.273438 C 416.300781 198.550781 417.375 200.550781 417.550781 200.699219 C 417.75 200.851562 419.023438 201.550781 420.375 202.25 C 421.75 202.976562 424 204.148438 425.375 204.875 C 426.75 205.601562 430.125 207.351562 432.875 208.75 C 435.625 210.148438 439 211.898438 440.375 212.625 C 447.648438 216.449219 450.824219 218.023438 451 217.824219 C 451.199219 217.625 453.75 212.625 465.875 188.625 C 468.851562 182.699219 471.601562 177.476562 472 177 C 474.898438 173.300781 481.050781 174.574219 482.398438 179.125 C 482.949219 181.101562 482.75 182.050781 481.023438 185.476562 C 480.226562 187.074219 476.449219 194.550781 472.625 202.125 C 460.675781 225.699219 453.925781 239.074219 449.574219 247.675781 L 445.375 256 L 449.574219 264.300781 C 453.925781 272.925781 460.675781 286.300781 472.625 309.875 C 476.449219 317.425781 480.226562 324.925781 481.023438 326.523438 C 482.75 329.949219 482.949219 330.898438 482.398438 332.875 C 481.050781 337.425781 474.898438 338.699219 472 335 C 471.601562 334.523438 468.851562 329.273438 465.875 323.375 C 453.726562 299.324219 451.199219 294.375 451 294.175781 C 450.824219 293.976562 447.050781 295.851562 440.125 299.5 C 438.898438 300.148438 435.625 301.851562 432.875 303.25 C 430.125 304.648438 426.75 306.398438 425.375 307.125 C 424 307.851562 421.75 309.023438 420.375 309.75 C 419.023438 310.449219 417.75 311.148438 417.550781 311.300781 C 417.375 311.449219 416.300781 313.449219 415.148438 315.726562 C 414 318 410.25 325.449219 406.824219 332.25 C 403.375 339.050781 398 349.675781 394.875 355.875 C 391.75 362.050781 386.773438 371.898438 383.800781 377.75 C 380.824219 383.601562 375.976562 393.199219 372.976562 399.101562 C 370 405.023438 367.199219 410.300781 366.75 410.824219 C 366.300781 411.375 365.398438 412.050781 364.773438 412.324219 C 363.449219 412.898438 365.875 412.898438 328 412.375 C 298.398438 411.976562 289.5 411.800781 288.25 411.601562 C 287.773438 411.5 285.398438 410.425781 283 409.175781 C 274.875 405 270.398438 402.675781 265.375 400.023438 C 262.601562 398.574219 259.375 396.875 258.175781 396.25 L 256 395.125 L 253.824219 396.25 C 252.625 396.875 250.351562 398.050781 248.75 398.898438 C 244.726562 401.023438 234.199219 406.5 229 409.175781 C 226.601562 410.425781 224.226562 411.5 223.75 411.601562 C 222.5 411.800781 213.699219 411.976562 183.875 412.375 C 145.925781 412.898438 148.550781 412.898438 147.226562 412.324219 C 146.601562 412.050781 145.699219 411.375 145.25 410.824219 C 144.800781 410.300781 142 405.023438 139 399.101562 C 136.023438 393.199219 131.101562 383.476562 128.074219 377.5 C 125.050781 371.523438 120.023438 361.625 116.925781 355.5 C 113.851562 349.375 108.523438 338.851562 105.125 332.125 C 101.726562 325.375 98 318 96.851562 315.726562 C 95.699219 313.449219 94.625 311.449219 94.449219 311.300781 C 94.25 311.148438 92.976562 310.449219 91.625 309.75 C 90.25 309.023438 88 307.851562 86.625 307.125 C 85.25 306.398438 81.875 304.648438 79.125 303.25 C 76.375 301.851562 73.125 300.148438 71.875 299.5 C 65.324219 296.023438 61.148438 294 60.976562 294.175781 C 60.875 294.273438 57.773438 300.324219 54.101562 307.625 C 40.601562 334.351562 40.625 334.324219 39.574219 335.398438 C 37.726562 337.300781 35.101562 337.699219 32.625 336.476562 C 31.101562 335.726562 30.074219 334.476562 29.601562 332.773438 C 29.023438 330.875 29.273438 329.898438 31.148438 326.125 C 32.675781 323.148438 37.925781 312.75 52.675781 283.625 C 55.726562 277.574219 60.125 268.875 62.425781 264.300781 L 66.625 256 L 62.425781 247.675781 C 60.125 243.125 55.726562 234.425781 52.675781 228.375 C 37.476562 198.375 32.050781 187.648438 30.851562 185.226562 C 29.25 182.050781 29.050781 181.050781 29.601562 179.125 C 30.398438 176.449219 33.226562 174.5 35.898438 174.824219 C 37.398438 174.976562 39.175781 175.925781 40 177 C 40.398438 177.476562 43.148438 182.699219 46.125 188.625 C 58.949219 213.949219 60.800781 217.625 61 217.824219 C 61.148438 218 65.351562 215.949219 71.875 212.5 C 73.125 211.851562 76.375 210.148438 79.125 208.75 C 81.875 207.351562 85.25 205.601562 86.625 204.875 C 88 204.148438 90.25 202.976562 91.625 202.25 C 92.976562 201.550781 94.25 200.851562 94.449219 200.699219 C 94.625 200.550781 95.699219 198.550781 96.851562 196.273438 C 98 194 101.574219 186.898438 104.800781 180.5 C 108.023438 174.101562 113.625 163.023438 117.25 155.875 C 120.851562 148.726562 125.476562 139.601562 127.5 135.625 C 129.523438 131.625 134.148438 122.523438 137.75 115.375 C 141.351562 108.226562 144.601562 102 144.976562 101.523438 C 146.523438 99.574219 147.925781 99.074219 151.800781 99.175781 C 153.226562 99.226562 167.25 99.425781 183 99.625 Z M 183 99.625 "/>
<path style=" stroke:none;fill-rule:nonzero;fill:rgb(0%,0%,0%);fill-opacity:1;" d="M 251.625 132.75 C 249.300781 134 245.476562 135.976562 243.125 137.175781 C 240.800781 138.351562 238.773438 139.398438 238.625 139.5 C 238.398438 139.648438 231.449219 143.273438 220.625 148.851562 C 218.851562 149.773438 216.25 151.125 214.875 151.851562 C 212.5 153.074219 207.675781 155.601562 201.625 158.75 C 200.125 159.550781 197.199219 161.050781 195.125 162.125 C 193.074219 163.199219 190.023438 164.773438 188.375 165.625 C 182.925781 168.476562 175.976562 172.074219 168.125 176.125 C 165.800781 177.324219 163.199219 178.675781 162.375 179.125 C 161.550781 179.574219 158.898438 180.949219 156.5 182.199219 C 150.75 185.148438 145.875 187.675781 143.25 189.050781 C 142.074219 189.675781 139.101562 191.226562 136.625 192.5 C 134.148438 193.773438 131.351562 195.226562 130.375 195.75 C 128.699219 196.648438 123.300781 199.449219 117.375 202.5 C 115.875 203.300781 113.050781 204.75 111.125 205.75 C 109.199219 206.75 106.726562 208.050781 105.648438 208.601562 L 103.675781 209.625 L 101.148438 214.625 C 99.75 217.375 94.476562 227.800781 89.398438 237.800781 L 80.226562 256 L 89.398438 274.175781 C 94.476562 284.199219 99.75 294.625 101.148438 297.375 L 103.675781 302.375 L 105.648438 303.398438 C 106.726562 303.949219 109.199219 305.25 111.125 306.25 C 113.050781 307.25 115.875 308.699219 117.375 309.5 C 123.300781 312.550781 128.699219 315.351562 130.375 316.25 C 131.351562 316.773438 134.148438 318.226562 136.625 319.5 C 139.101562 320.773438 142.074219 322.324219 143.25 322.949219 C 145.875 324.324219 150.75 326.851562 156.5 329.800781 C 158.898438 331.050781 161.550781 332.425781 162.375 332.875 C 163.199219 333.324219 165.800781 334.675781 168.125 335.875 C 175.976562 339.925781 182.925781 343.523438 188.375 346.375 C 190.023438 347.226562 193.074219 348.800781 195.125 349.875 C 197.199219 350.949219 200.125 352.449219 201.625 353.25 C 208.175781 356.648438 212.550781 358.925781 214.875 360.148438 C 216.25 360.875 219.175781 362.398438 221.375 363.523438 C 223.574219 364.648438 227.800781 366.824219 230.75 368.375 C 237.476562 371.875 241.925781 374.199219 246.25 376.425781 C 248.101562 377.398438 251.050781 378.949219 252.824219 379.875 L 256 381.550781 L 259.199219 379.875 C 260.949219 378.949219 264.125 377.273438 266.25 376.175781 C 268.375 375.074219 272.550781 372.925781 275.5 371.375 C 282.300781 367.824219 286.699219 365.550781 291.125 363.273438 C 293.050781 362.273438 295.75 360.875 297.125 360.148438 C 298.5 359.425781 301.550781 357.851562 303.875 356.648438 C 306.226562 355.425781 308.925781 354.023438 309.875 353.5 C 310.851562 352.976562 313.773438 351.476562 316.375 350.125 C 319 348.773438 322.25 347.101562 323.625 346.375 C 325 345.648438 327.824219 344.175781 329.875 343.125 C 338.273438 338.773438 339.800781 337.976562 343.875 335.875 C 346.226562 334.675781 348.800781 333.324219 349.625 332.875 C 350.449219 332.425781 352.925781 331.125 355.125 330 C 364.699219 325.074219 366.726562 324 368.574219 323.023438 C 369.648438 322.449219 372.851562 320.800781 375.699219 319.351562 C 378.550781 317.875 381.449219 316.375 382.125 316 C 383.300781 315.351562 388.101562 312.851562 394.625 309.5 C 396.148438 308.699219 398.949219 307.25 400.875 306.25 C 402.800781 305.25 405.273438 303.949219 406.351562 303.398438 L 408.351562 302.375 L 410.75 297.625 C 412.050781 295 417.324219 284.574219 422.449219 274.449219 L 431.773438 256 L 422.449219 237.574219 C 417.324219 227.425781 412.050781 216.976562 410.75 214.375 L 408.351562 209.625 L 406.351562 208.601562 C 405.273438 208.050781 402.800781 206.75 400.875 205.75 C 398.949219 204.75 396.148438 203.300781 394.625 202.5 C 388.101562 199.148438 383.300781 196.648438 382.125 196 C 381.449219 195.625 378.550781 194.125 375.699219 192.648438 C 372.851562 191.199219 369.648438 189.550781 368.574219 188.976562 C 366.726562 188 364.699219 186.925781 355.125 182 C 352.925781 180.875 350.449219 179.574219 349.625 179.125 C 348.800781 178.675781 346.226562 177.324219 343.875 176.125 C 339.800781 174.023438 338.273438 173.226562 329.875 168.875 C 327.824219 167.824219 325 166.351562 323.625 165.625 C 322.25 164.898438 319 163.226562 316.375 161.875 C 313.773438 160.523438 310.851562 159.023438 309.875 158.5 C 308.925781 157.976562 306.226562 156.574219 303.875 155.351562 C 301.550781 154.148438 298.5 152.574219 297.125 151.851562 C 295.75 151.125 292.5 149.449219 289.875 148.101562 C 287.273438 146.773438 285.023438 145.601562 284.875 145.5 C 284.75 145.398438 282.148438 144.050781 279.125 142.5 C 276.101562 140.949219 273.523438 139.601562 273.375 139.5 C 273.25 139.398438 271.226562 138.351562 268.875 137.175781 C 266.550781 135.976562 262.726562 134 260.375 132.75 C 258.050781 131.523438 256.074219 130.5 256 130.5 C 255.925781 130.5 253.976562 131.523438 251.625 132.75 Z M 191.976562 224.824219 C 196.800781 226.5 200.324219 230.351562 201.5 235.25 C 202.101562 237.75 202.125 239.25 201.625 241.601562 C 199.5 251.601562 188.023438 256.375 179.449219 250.800781 C 177.199219 249.300781 175.523438 247.449219 174.398438 245.125 C 172.726562 241.675781 172.375 238.574219 173.25 235.125 C 174.648438 229.601562 179 225.449219 184.625 224.25 C 186.425781 223.851562 189.949219 224.125 191.976562 224.824219 Z M 329.300781 224.824219 C 333.050781 226.199219 335.875 228.625 337.574219 232.023438 C 339.773438 236.324219 339.773438 240.648438 337.601562 245.125 C 334.898438 250.675781 328.625 253.976562 322.523438 253.023438 C 309.773438 251.050781 305.601562 234.851562 315.800781 227.101562 C 317.601562 225.75 318.925781 225.101562 321.25 224.449219 C 323.523438 223.824219 327 223.976562 329.300781 224.824219 Z M 190.351562 308.074219 C 191.125 308.425781 192.273438 309.25 192.898438 309.875 C 194.050781 311.050781 195.25 313.199219 195.25 314.125 C 195.25 314.398438 195.351562 314.773438 195.476562 314.949219 C 195.648438 315.226562 205.375 318.351562 208.875 319.25 C 209.300781 319.351562 210.976562 319.851562 212.625 320.351562 C 215.398438 321.175781 233.199219 326.449219 239.75 328.375 C 241.324219 328.851562 243.175781 329.398438 243.824219 329.601562 C 245 329.949219 245.023438 329.949219 245.226562 329.398438 C 246.226562 326.800781 247.375 325.226562 249.375 323.75 C 253.148438 320.976562 258.851562 320.976562 262.625 323.75 C 264.625 325.226562 265.773438 326.800781 266.773438 329.398438 C 266.976562 329.949219 267 329.949219 268.175781 329.601562 C 268.824219 329.398438 270.675781 328.851562 272.25 328.375 C 273.824219 327.925781 279.898438 326.125 285.75 324.398438 C 291.601562 322.648438 297.949219 320.773438 299.875 320.226562 C 301.800781 319.648438 303.824219 319.050781 304.375 318.875 C 304.925781 318.699219 307.574219 317.925781 310.25 317.125 C 316.824219 315.199219 316.398438 315.425781 316.726562 314.074219 C 317.398438 311.425781 319.25 309.199219 321.675781 308.050781 C 322.898438 307.476562 323.449219 307.375 325.25 307.375 C 327.824219 307.398438 329.5 308.050781 331.300781 309.800781 C 334.675781 313.101562 334.800781 318.449219 331.574219 322 C 329.875 323.875 328.175781 324.574219 325.375 324.601562 C 323.300781 324.625 322.976562 324.550781 321.449219 323.800781 C 320.351562 323.25 319.398438 322.550781 318.675781 321.726562 L 317.574219 320.476562 L 314.601562 321.351562 C 309.824219 322.726562 305.648438 323.949219 301.375 325.25 C 299.175781 325.898438 294.625 327.25 291.25 328.25 C 287.875 329.226562 284.449219 330.25 283.625 330.5 C 282.800781 330.75 281.175781 331.25 280 331.574219 C 278.824219 331.925781 275.476562 332.925781 272.523438 333.800781 L 267.148438 335.398438 L 266.574219 337.125 C 265.851562 339.300781 264.25 341.375 262.324219 342.699219 C 260.050781 344.226562 258.75 344.625 256 344.625 C 253.25 344.625 251.949219 344.226562 249.675781 342.699219 C 247.75 341.375 246.148438 339.300781 245.425781 337.125 C 244.875 335.476562 244.773438 335.375 243.851562 335.101562 C 239.148438 333.675781 231.398438 331.398438 230.5 331.125 C 229.875 330.949219 227.398438 330.226562 225 329.5 C 222.601562 328.773438 218.726562 327.648438 216.375 326.949219 C 212.675781 325.875 205.851562 323.851562 197.050781 321.226562 L 194.449219 320.449219 L 193.351562 321.699219 C 192.601562 322.550781 191.675781 323.25 190.550781 323.800781 C 189.023438 324.550781 188.699219 324.625 186.625 324.601562 C 184.675781 324.601562 184.175781 324.5 182.925781 323.875 C 180.300781 322.574219 178.449219 319.851562 178.074219 316.726562 C 177.601562 312.773438 180.648438 308.523438 184.675781 307.5 C 186.273438 307.101562 188.773438 307.351562 190.351562 308.074219 Z M 190.351562 308.074219 "/>
</g>
</svg>
