<svg id="svg" version="1.1" xmlns="http://www.w3.org/2000/svg" xmlns:xlink="http://www.w3.org/1999/xlink" width="400" height="99.61089494163424" viewBox="0, 0, 400,99.61089494163424"><g id="svgg"><path id="path0" d="M0.000 22.083 C 0.000 40.475,0.037 44.167,0.224 44.167 C 0.396 44.167,0.473 43.646,0.552 41.958 C 0.645 39.990,0.693 39.725,0.995 39.521 C 1.286 39.324,1.333 39.113,1.333 37.999 C 1.333 36.803,1.365 36.684,1.750 36.432 C 2.132 36.181,2.167 36.058,2.167 34.922 C 2.167 33.903,2.221 33.647,2.478 33.467 C 2.651 33.346,2.843 32.937,2.909 32.548 C 2.989 32.069,3.128 31.815,3.347 31.746 C 3.611 31.662,3.667 31.485,3.667 30.738 C 3.667 29.978,3.734 29.772,4.083 29.469 C 4.343 29.243,4.500 28.930,4.500 28.638 C 4.500 28.348,4.628 28.090,4.838 27.960 C 5.037 27.836,5.216 27.492,5.276 27.119 C 5.336 26.750,5.507 26.419,5.689 26.321 C 5.883 26.218,6.000 25.973,6.000 25.673 C 6.000 25.357,6.144 25.078,6.417 24.863 C 6.646 24.683,6.833 24.453,6.833 24.352 C 6.833 24.252,6.985 24.075,7.171 23.960 C 7.369 23.837,7.550 23.493,7.608 23.130 C 7.673 22.726,7.817 22.475,8.021 22.410 C 8.193 22.356,8.333 22.202,8.333 22.069 C 8.333 21.935,8.521 21.741,8.750 21.636 C 9.073 21.489,9.167 21.322,9.167 20.894 C 9.167 20.488,9.278 20.268,9.583 20.068 C 9.813 19.918,10.000 19.696,10.000 19.575 C 10.000 19.455,10.150 19.308,10.333 19.250 C 10.517 19.192,10.667 19.035,10.667 18.902 C 10.667 18.769,10.854 18.574,11.083 18.470 C 11.384 18.333,11.500 18.149,11.500 17.810 C 11.500 17.494,11.635 17.252,11.917 17.068 C 12.146 16.918,12.333 16.720,12.333 16.628 C 12.333 16.437,13.497 15.333,13.699 15.333 C 13.773 15.333,13.833 15.219,13.833 15.080 C 13.833 14.940,14.021 14.741,14.250 14.636 C 14.479 14.532,14.667 14.375,14.667 14.287 C 14.667 14.101,15.835 13.000,16.033 13.000 C 16.106 13.000,16.167 12.890,16.167 12.756 C 16.167 12.622,16.335 12.422,16.542 12.313 C 16.748 12.203,17.015 11.976,17.134 11.807 C 17.264 11.624,17.557 11.500,17.858 11.500 C 18.231 11.500,18.388 11.408,18.455 11.154 C 18.505 10.964,18.723 10.740,18.939 10.658 C 19.156 10.576,19.333 10.399,19.333 10.265 C 19.333 10.132,19.483 9.975,19.667 9.917 C 19.850 9.858,20.078 9.666,20.173 9.489 C 20.292 9.265,20.522 9.167,20.927 9.167 C 21.394 9.167,21.539 9.085,21.667 8.750 C 21.754 8.521,21.939 8.333,22.079 8.333 C 22.219 8.333,22.333 8.264,22.333 8.179 C 22.333 7.863,22.872 7.500,23.339 7.500 C 23.651 7.500,23.885 7.382,24.000 7.167 C 24.098 6.983,24.280 6.833,24.403 6.833 C 24.527 6.833,24.751 6.646,24.901 6.417 C 25.077 6.148,25.329 6.000,25.610 6.000 C 25.860 6.000,26.209 5.823,26.431 5.583 C 26.666 5.330,27.000 5.167,27.285 5.167 C 27.573 5.167,27.833 5.038,27.961 4.833 C 28.105 4.602,28.350 4.500,28.757 4.500 C 29.164 4.500,29.377 4.411,29.451 4.208 C 29.616 3.763,29.841 3.672,30.792 3.669 C 31.273 3.668,31.667 3.597,31.667 3.512 C 31.667 3.185,32.213 2.833,32.722 2.833 C 33.073 2.833,33.324 2.720,33.461 2.500 C 33.639 2.216,33.850 2.167,34.888 2.167 C 35.980 2.167,36.144 2.123,36.469 1.750 C 36.799 1.370,36.950 1.333,38.166 1.333 C 38.900 1.333,39.500 1.264,39.500 1.179 C 39.500 0.640,40.036 0.500,42.095 0.500 C 43.825 0.500,44.167 0.459,44.167 0.250 C 44.167 0.029,41.602 0.000,22.083 0.000 L 0.000 0.000 0.000 22.083 M55.500 0.250 C 55.500 0.459,55.841 0.500,57.571 0.500 C 59.630 0.500,60.167 0.640,60.167 1.179 C 60.167 1.264,60.767 1.333,61.501 1.333 C 62.717 1.333,62.868 1.370,63.198 1.750 C 63.523 2.123,63.687 2.167,64.779 2.167 C 65.817 2.167,66.028 2.216,66.205 2.500 C 66.343 2.720,66.594 2.833,66.945 2.833 C 67.453 2.833,68.000 3.185,68.000 3.512 C 68.000 3.597,68.411 3.667,68.913 3.667 C 69.703 3.667,69.862 3.723,70.099 4.083 C 70.301 4.392,70.518 4.500,70.934 4.500 C 71.317 4.500,71.564 4.607,71.705 4.833 C 71.833 5.038,72.094 5.167,72.381 5.167 C 72.666 5.167,73.000 5.330,73.235 5.583 C 73.448 5.813,73.785 6.000,73.985 6.000 C 74.186 6.000,74.523 6.187,74.735 6.417 C 74.948 6.646,75.204 6.833,75.305 6.833 C 75.406 6.833,75.569 6.983,75.667 7.167 C 75.782 7.382,76.016 7.500,76.327 7.500 C 76.795 7.500,77.333 7.863,77.333 8.179 C 77.333 8.264,77.448 8.333,77.587 8.333 C 77.727 8.333,77.913 8.521,78.000 8.750 C 78.123 9.074,78.276 9.167,78.688 9.167 C 79.099 9.167,79.375 9.334,79.925 9.917 C 80.315 10.329,80.704 10.667,80.790 10.667 C 80.876 10.667,81.032 10.854,81.136 11.083 C 81.274 11.385,81.456 11.500,81.800 11.500 C 82.075 11.500,82.420 11.657,82.625 11.875 C 82.819 12.081,83.076 12.340,83.197 12.450 C 83.318 12.561,83.502 12.748,83.606 12.867 C 83.711 12.986,84.065 13.308,84.394 13.583 C 84.724 13.858,84.994 14.172,84.996 14.280 C 84.998 14.389,85.146 14.524,85.325 14.581 C 85.503 14.637,85.696 14.830,85.753 15.009 C 85.809 15.187,85.914 15.333,85.986 15.333 C 86.163 15.333,87.333 16.482,87.333 16.656 C 87.333 16.732,87.521 16.918,87.750 17.068 C 88.036 17.256,88.167 17.493,88.167 17.826 C 88.167 18.164,88.267 18.343,88.500 18.417 C 88.683 18.475,88.833 18.587,88.833 18.666 C 88.833 18.744,89.208 19.188,89.667 19.651 C 90.289 20.279,90.500 20.618,90.500 20.985 C 90.500 21.327,90.599 21.509,90.825 21.581 C 91.003 21.637,91.195 21.826,91.250 22.000 C 91.305 22.174,91.487 22.360,91.655 22.413 C 91.853 22.476,91.995 22.738,92.064 23.166 C 92.130 23.577,92.293 23.889,92.501 24.001 C 92.684 24.098,92.833 24.247,92.833 24.332 C 92.833 24.416,93.021 24.672,93.250 24.902 C 93.479 25.131,93.667 25.506,93.667 25.737 C 93.667 25.974,93.801 26.227,93.978 26.321 C 94.159 26.419,94.331 26.750,94.390 27.119 C 94.450 27.492,94.629 27.836,94.829 27.960 C 95.028 28.083,95.167 28.348,95.167 28.602 C 95.167 28.840,95.354 29.258,95.583 29.530 C 95.903 29.910,96.000 30.215,96.000 30.835 C 96.000 31.480,96.063 31.664,96.313 31.743 C 96.524 31.811,96.661 32.067,96.736 32.536 C 96.801 32.938,96.984 33.324,97.174 33.457 C 97.447 33.648,97.500 33.883,97.500 34.896 C 97.500 35.980,97.544 36.145,97.917 36.469 C 98.291 36.794,98.333 36.957,98.333 38.062 C 98.333 39.106,98.384 39.327,98.667 39.521 C 98.962 39.724,99.014 40.006,99.110 41.966 C 99.204 43.883,99.260 44.205,99.526 44.347 C 100.001 44.602,100.001 54.862,99.526 55.199 C 99.266 55.383,99.202 55.747,99.109 57.583 C 99.011 59.488,98.958 59.778,98.666 59.979 C 98.384 60.172,98.333 60.396,98.333 61.445 C 98.333 62.551,98.289 62.724,97.917 63.069 C 97.543 63.415,97.500 63.585,97.500 64.722 C 97.500 65.816,97.455 66.012,97.168 66.166 C 96.959 66.278,96.796 66.591,96.729 67.011 C 96.668 67.390,96.497 67.746,96.332 67.834 C 96.126 67.944,96.019 68.264,95.963 68.943 C 95.902 69.681,95.803 69.952,95.525 70.136 C 95.290 70.292,95.167 70.547,95.167 70.876 C 95.167 71.198,95.017 71.517,94.750 71.765 C 94.520 71.977,94.333 72.337,94.333 72.566 C 94.333 72.794,94.196 73.079,94.027 73.199 C 93.859 73.319,93.671 73.672,93.610 73.985 C 93.548 74.298,93.348 74.658,93.165 74.786 C 92.983 74.914,92.833 75.122,92.833 75.248 C 92.833 75.374,92.683 75.525,92.500 75.583 C 92.268 75.657,92.134 75.893,92.059 76.367 C 91.985 76.828,91.852 77.070,91.642 77.125 C 91.472 77.169,91.333 77.308,91.333 77.432 C 91.333 77.557,91.146 77.782,90.917 77.932 C 90.633 78.118,90.500 78.357,90.500 78.682 C 90.500 79.007,90.367 79.246,90.083 79.432 C 89.854 79.582,89.667 79.816,89.667 79.951 C 89.667 80.087,89.526 80.235,89.354 80.280 C 89.181 80.325,88.958 80.543,88.857 80.764 C 88.756 80.986,88.560 81.167,88.420 81.167 C 88.241 81.167,88.167 81.339,88.167 81.754 C 88.167 82.218,88.080 82.380,87.750 82.530 C 87.521 82.635,87.333 82.787,87.333 82.868 C 87.333 83.051,83.022 87.333,82.838 87.333 C 82.765 87.333,82.666 87.483,82.618 87.667 C 82.557 87.901,82.390 88.001,82.057 88.003 C 81.501 88.006,81.266 88.141,81.118 88.542 C 81.059 88.702,80.894 88.833,80.751 88.833 C 80.608 88.833,80.420 89.021,80.333 89.250 C 80.246 89.479,80.063 89.667,79.927 89.667 C 79.790 89.667,79.598 89.817,79.500 90.000 C 79.394 90.198,79.151 90.333,78.903 90.333 C 78.670 90.333,78.312 90.519,78.098 90.750 C 77.886 90.979,77.627 91.167,77.523 91.167 C 77.418 91.167,77.333 91.236,77.333 91.321 C 77.333 91.642,76.791 92.000,76.306 92.000 C 75.950 92.000,75.778 92.094,75.719 92.319 C 75.673 92.495,75.455 92.684,75.234 92.739 C 75.014 92.794,74.833 92.943,74.833 93.069 C 74.833 93.331,74.477 93.500,73.922 93.500 C 73.697 93.500,73.426 93.672,73.265 93.917 C 73.062 94.226,72.846 94.333,72.424 94.333 C 72.002 94.333,71.829 94.419,71.750 94.667 C 71.687 94.865,71.497 95.001,71.280 95.002 C 70.622 95.006,70.199 95.193,70.114 95.515 C 70.045 95.780,69.876 95.833,69.103 95.833 C 68.296 95.833,68.138 95.888,67.901 96.250 C 67.701 96.556,67.481 96.667,67.074 96.667 C 66.720 96.667,66.439 96.780,66.300 96.979 C 66.131 97.221,65.770 97.319,64.704 97.413 C 63.600 97.511,63.293 97.598,63.157 97.851 C 63.013 98.120,62.793 98.167,61.665 98.167 C 60.437 98.167,60.321 98.197,60.068 98.583 C 59.800 98.992,59.754 99.000,57.647 99.000 C 55.850 99.000,55.500 99.041,55.500 99.250 C 55.500 99.472,74.750 99.500,227.750 99.500 L 400.000 99.500 400.000 49.750 L 400.000 0.000 227.750 0.000 C 74.750 0.000,55.500 0.028,55.500 0.250 M28.270 20.328 C 28.204 20.743,28.041 21.056,27.832 21.167 C 27.622 21.280,27.500 21.516,27.500 21.809 C 27.500 22.096,27.341 22.411,27.083 22.636 C 26.849 22.839,26.667 23.178,26.667 23.409 C 26.667 23.635,26.527 23.955,26.357 24.119 C 26.187 24.282,26.002 24.659,25.946 24.954 C 25.883 25.284,25.551 25.781,25.088 26.236 C 24.392 26.923,24.333 27.045,24.333 27.818 C 24.333 28.475,24.264 28.692,24.011 28.827 C 23.834 28.922,23.643 29.146,23.586 29.325 C 23.529 29.503,23.337 29.696,23.158 29.753 C 22.893 29.837,22.833 30.009,22.833 30.686 C 22.833 31.357,22.754 31.590,22.417 31.902 C 22.188 32.114,22.000 32.371,22.000 32.472 C 22.000 32.572,21.860 32.730,21.688 32.822 C 21.466 32.941,21.353 33.237,21.293 33.859 C 21.234 34.477,21.107 34.812,20.855 35.016 C 20.660 35.174,20.500 35.383,20.500 35.481 C 20.500 35.579,20.313 35.782,20.083 35.932 C 19.776 36.133,19.667 36.352,19.667 36.763 C 19.667 37.151,19.565 37.376,19.333 37.500 C 19.117 37.616,19.000 37.849,19.000 38.166 C 19.000 38.434,18.882 38.750,18.738 38.868 C 18.595 38.987,18.319 39.252,18.125 39.458 C 17.932 39.665,17.603 39.833,17.395 39.833 C 17.187 39.833,16.815 40.021,16.568 40.250 C 16.320 40.479,15.931 40.667,15.703 40.667 C 15.475 40.667,15.115 40.854,14.902 41.083 C 14.667 41.337,14.333 41.500,14.048 41.500 C 13.773 41.500,13.501 41.627,13.387 41.810 C 13.027 42.386,11.500 42.386,11.500 41.810 C 11.500 41.712,11.313 41.484,11.083 41.304 C 10.810 41.089,10.667 40.809,10.667 40.494 C 10.667 40.194,10.549 39.949,10.356 39.845 C 10.174 39.748,10.002 39.416,9.943 39.048 C 9.883 38.674,9.704 38.331,9.504 38.207 C 9.288 38.073,9.167 37.819,9.167 37.502 C 9.167 37.159,9.040 36.924,8.750 36.735 C 8.461 36.545,8.333 36.311,8.333 35.968 C 8.333 35.124,7.518 34.470,6.545 34.532 C 5.574 34.595,5.284 35.272,6.075 35.633 C 6.412 35.786,6.500 35.946,6.500 36.407 C 6.500 36.804,6.599 37.041,6.811 37.155 C 6.997 37.254,7.165 37.587,7.228 37.983 C 7.301 38.441,7.436 38.677,7.667 38.750 C 7.914 38.829,8.000 39.002,8.000 39.424 C 8.000 39.846,8.107 40.062,8.417 40.265 C 8.724 40.467,8.833 40.685,8.833 41.097 C 8.833 41.476,8.936 41.710,9.152 41.825 C 9.343 41.928,9.515 42.259,9.582 42.658 C 9.657 43.101,9.799 43.353,10.013 43.421 C 10.246 43.495,10.333 43.677,10.333 44.091 C 10.333 44.513,10.440 44.729,10.750 44.932 C 11.057 45.133,11.167 45.352,11.167 45.763 C 11.167 46.142,11.269 46.376,11.485 46.492 C 11.676 46.594,11.848 46.926,11.915 47.324 C 11.990 47.768,12.132 48.020,12.347 48.088 C 12.835 48.243,12.833 51.321,12.345 51.449 C 12.124 51.506,11.989 51.738,11.912 52.192 C 11.849 52.567,11.665 52.936,11.484 53.049 C 11.278 53.177,11.167 53.436,11.167 53.786 C 11.167 54.178,11.052 54.401,10.750 54.599 C 10.438 54.803,10.333 55.017,10.333 55.451 C 10.333 55.884,10.252 56.053,10.012 56.115 C 9.791 56.173,9.656 56.405,9.579 56.858 C 9.516 57.234,9.331 57.603,9.151 57.715 C 8.945 57.844,8.833 58.103,8.833 58.453 C 8.833 58.844,8.719 59.067,8.417 59.265 C 8.104 59.470,8.000 59.684,8.000 60.118 C 8.000 60.558,7.920 60.719,7.665 60.785 C 7.428 60.847,7.300 61.064,7.225 61.533 C 7.165 61.908,6.986 62.277,6.810 62.387 C 6.612 62.511,6.500 62.774,6.500 63.120 C 6.500 63.511,6.386 63.734,6.083 63.932 C 5.548 64.283,5.524 64.923,6.042 65.062 C 6.846 65.277,7.528 65.181,7.617 64.839 C 7.664 64.659,7.845 64.466,8.018 64.411 C 8.239 64.341,8.334 64.153,8.336 63.780 C 8.339 63.169,8.465 62.936,8.875 62.785 C 9.077 62.710,9.167 62.497,9.167 62.094 C 9.167 61.683,9.264 61.459,9.499 61.334 C 9.707 61.223,9.870 60.910,9.936 60.499 C 10.006 60.063,10.146 59.809,10.354 59.743 C 10.579 59.672,10.667 59.485,10.667 59.076 C 10.667 58.660,10.774 58.437,11.066 58.246 C 11.286 58.102,11.503 57.838,11.550 57.659 C 11.672 57.195,13.047 57.190,13.371 57.652 C 13.494 57.828,13.883 58.025,14.236 58.092 C 14.656 58.171,14.904 58.318,14.958 58.523 C 15.016 58.747,15.192 58.833,15.591 58.833 C 16.117 58.833,16.667 59.180,16.667 59.512 C 16.667 59.597,16.900 59.667,17.186 59.667 C 17.908 59.667,19.000 60.752,19.000 61.469 C 19.000 61.831,19.096 62.008,19.333 62.083 C 19.578 62.161,19.667 62.336,19.667 62.742 C 19.667 63.148,19.777 63.368,20.083 63.568 C 20.313 63.718,20.500 63.943,20.500 64.067 C 20.500 64.191,20.661 64.400,20.859 64.531 C 21.135 64.714,21.235 64.985,21.296 65.713 C 21.357 66.449,21.443 66.679,21.687 66.756 C 21.859 66.811,22.000 66.936,22.000 67.034 C 22.000 67.132,22.187 67.386,22.417 67.598 C 22.757 67.913,22.833 68.141,22.833 68.841 C 22.833 69.559,22.888 69.712,23.168 69.786 C 23.353 69.834,23.548 70.052,23.603 70.270 C 23.658 70.488,23.799 70.667,23.917 70.667 C 24.205 70.667,24.333 71.050,24.333 71.911 C 24.333 72.492,24.412 72.680,24.750 72.901 C 24.979 73.051,25.167 73.244,25.167 73.330 C 25.167 73.415,25.354 73.672,25.583 73.902 C 25.830 74.148,26.000 74.509,26.000 74.786 C 26.000 75.073,26.129 75.334,26.333 75.461 C 26.522 75.579,26.667 75.850,26.667 76.086 C 26.667 76.322,26.847 76.659,27.083 76.864 C 27.341 77.088,27.500 77.404,27.500 77.689 C 27.500 77.960,27.672 78.324,27.917 78.568 C 28.146 78.797,28.333 79.176,28.333 79.409 L 28.333 79.833 36.239 79.833 C 43.825 79.833,44.148 79.821,44.243 79.521 C 44.309 79.313,44.563 79.173,44.999 79.103 C 45.410 79.037,45.723 78.873,45.834 78.666 C 45.957 78.435,46.183 78.333,46.570 78.333 C 46.982 78.333,47.200 78.224,47.401 77.917 C 47.603 77.609,47.821 77.500,48.234 77.500 C 48.654 77.500,48.816 77.417,48.882 77.167 C 48.955 76.887,49.109 76.833,49.833 76.833 C 50.558 76.833,50.712 76.887,50.785 77.167 C 50.850 77.417,51.012 77.500,51.432 77.500 C 51.846 77.500,52.064 77.609,52.265 77.917 C 52.467 78.224,52.685 78.333,53.097 78.333 C 53.484 78.333,53.709 78.435,53.833 78.666 C 53.944 78.873,54.257 79.037,54.667 79.103 C 55.104 79.173,55.357 79.313,55.423 79.521 C 55.518 79.821,55.842 79.833,63.428 79.833 L 71.333 79.833 71.333 79.429 C 71.333 79.207,71.521 78.803,71.750 78.530 C 71.979 78.258,72.167 77.853,72.167 77.631 C 72.167 77.408,72.353 77.065,72.583 76.864 C 72.813 76.665,73.000 76.358,73.000 76.181 C 73.000 75.684,73.179 75.333,73.434 75.333 C 73.578 75.333,73.667 75.154,73.667 74.861 C 73.667 74.416,74.708 72.833,75.001 72.833 C 75.068 72.833,75.174 72.457,75.235 71.998 C 75.374 70.943,75.481 70.667,75.750 70.667 C 75.868 70.667,76.009 70.488,76.063 70.270 C 76.118 70.052,76.314 69.834,76.498 69.786 C 76.778 69.712,76.833 69.559,76.833 68.858 C 76.833 68.192,76.920 67.924,77.250 67.568 C 77.479 67.320,77.667 67.059,77.667 66.987 C 77.667 66.915,77.808 66.811,77.980 66.756 C 78.224 66.679,78.310 66.449,78.371 65.713 C 78.432 64.985,78.532 64.714,78.808 64.531 C 79.005 64.400,79.167 64.190,79.167 64.064 C 79.167 63.939,79.317 63.742,79.500 63.628 C 79.699 63.504,79.833 63.239,79.833 62.972 C 79.833 62.533,80.205 62.000,80.512 62.000 C 80.597 62.000,80.667 61.766,80.667 61.480 C 80.667 61.099,80.839 60.789,81.314 60.314 C 81.789 59.839,82.099 59.667,82.480 59.667 C 82.766 59.667,83.000 59.597,83.000 59.512 C 83.000 59.197,83.539 58.833,84.006 58.833 C 84.308 58.833,84.551 58.716,84.656 58.519 C 84.751 58.343,85.097 58.154,85.448 58.088 C 85.791 58.024,86.173 57.828,86.295 57.652 C 86.601 57.216,87.960 57.195,88.118 57.625 C 88.177 57.785,88.400 58.082,88.613 58.284 C 88.849 58.508,89.000 58.844,89.000 59.147 C 89.000 59.487,89.099 59.676,89.313 59.743 C 89.521 59.809,89.661 60.063,89.731 60.499 C 89.796 60.910,89.960 61.223,90.168 61.334 C 90.404 61.460,90.500 61.683,90.500 62.105 C 90.500 62.548,90.580 62.719,90.818 62.781 C 91.141 62.865,91.327 63.289,91.331 63.947 C 91.332 64.156,91.467 64.353,91.649 64.411 C 91.822 64.466,92.003 64.659,92.050 64.839 C 92.139 65.181,92.821 65.277,93.625 65.062 C 94.142 64.923,94.119 64.283,93.583 63.932 C 93.288 63.738,93.167 63.509,93.167 63.145 C 93.167 62.796,93.033 62.527,92.750 62.304 C 92.455 62.072,92.333 61.814,92.333 61.424 C 92.333 61.012,92.249 60.850,92.000 60.785 C 91.747 60.719,91.667 60.558,91.667 60.118 C 91.667 59.684,91.562 59.470,91.250 59.265 C 90.955 59.072,90.833 58.843,90.833 58.478 C 90.833 58.129,90.700 57.860,90.417 57.637 C 90.122 57.405,90.000 57.147,90.000 56.757 C 90.000 56.346,89.915 56.183,89.667 56.118 C 89.414 56.052,89.333 55.891,89.333 55.451 C 89.333 55.017,89.229 54.803,88.917 54.599 C 88.621 54.405,88.500 54.176,88.500 53.812 C 88.500 53.462,88.367 53.193,88.083 52.970 C 87.789 52.739,87.667 52.481,87.667 52.091 C 87.667 51.694,87.580 51.516,87.359 51.458 C 86.652 51.273,86.647 48.301,87.353 48.077 C 87.579 48.005,87.667 47.819,87.667 47.409 C 87.667 46.987,87.774 46.771,88.083 46.568 C 88.387 46.369,88.500 46.147,88.500 45.750 C 88.500 45.353,88.613 45.131,88.917 44.932 C 89.226 44.729,89.333 44.513,89.333 44.091 C 89.333 43.669,89.419 43.495,89.667 43.417 C 89.902 43.342,90.000 43.164,90.000 42.814 C 90.000 42.498,90.152 42.177,90.417 41.931 C 90.684 41.684,90.833 41.365,90.833 41.042 C 90.833 40.689,90.958 40.457,91.250 40.265 C 91.560 40.062,91.667 39.846,91.667 39.424 C 91.667 39.002,91.753 38.829,92.000 38.750 C 92.235 38.675,92.333 38.498,92.333 38.147 C 92.333 37.832,92.485 37.510,92.750 37.265 C 93.025 37.010,93.167 36.699,93.167 36.352 C 93.167 35.950,93.267 35.781,93.591 35.633 C 93.912 35.487,94.004 35.334,93.966 35.011 C 93.832 33.855,91.333 34.703,91.333 35.905 C 91.333 36.157,91.160 36.486,90.917 36.698 C 90.657 36.924,90.500 37.237,90.500 37.529 C 90.500 37.819,90.372 38.077,90.162 38.207 C 89.963 38.331,89.784 38.674,89.724 39.048 C 89.664 39.416,89.493 39.748,89.311 39.845 C 89.134 39.940,89.000 40.192,89.000 40.430 C 89.000 40.660,88.813 41.036,88.583 41.265 C 88.354 41.494,88.167 41.751,88.167 41.835 C 88.167 42.390,86.630 42.370,86.280 41.810 C 86.166 41.627,85.894 41.500,85.619 41.500 C 85.334 41.500,85.000 41.337,84.765 41.083 C 84.532 40.832,84.195 40.667,83.917 40.667 C 83.638 40.667,83.302 40.501,83.069 40.250 C 82.856 40.021,82.505 39.833,82.288 39.833 C 82.071 39.833,81.735 39.665,81.542 39.458 C 81.348 39.252,81.072 38.987,80.928 38.868 C 80.784 38.750,80.667 38.459,80.667 38.221 C 80.667 37.973,80.488 37.623,80.250 37.402 C 79.996 37.167,79.833 36.833,79.833 36.548 C 79.833 36.261,79.705 36.000,79.500 35.872 C 79.317 35.758,79.167 35.583,79.167 35.484 C 79.167 35.385,79.009 35.176,78.817 35.020 C 78.579 34.828,78.438 34.471,78.376 33.910 C 78.318 33.387,78.156 32.953,77.934 32.729 C 76.998 31.784,76.833 31.476,76.833 30.664 C 76.833 30.009,76.772 29.836,76.509 29.753 C 76.330 29.696,76.137 29.503,76.081 29.325 C 76.024 29.146,75.841 28.927,75.675 28.838 C 75.466 28.726,75.337 28.391,75.257 27.748 C 75.160 26.970,75.035 26.712,74.480 26.147 C 74.112 25.771,73.775 25.239,73.719 24.945 C 73.664 24.654,73.479 24.282,73.309 24.119 C 73.139 23.955,73.000 23.635,73.000 23.409 C 73.000 23.178,72.817 22.839,72.583 22.636 C 72.325 22.411,72.167 22.096,72.167 21.809 C 72.167 21.516,72.044 21.280,71.834 21.167 C 71.626 21.056,71.463 20.743,71.396 20.328 L 71.291 19.667 63.539 19.667 L 55.788 19.667 55.402 20.083 C 55.167 20.337,54.833 20.500,54.548 20.500 C 54.269 20.500,54.000 20.628,53.882 20.817 C 53.768 21.000,53.398 21.183,53.009 21.249 C 52.623 21.314,52.333 21.456,52.333 21.580 C 52.333 21.826,51.972 22.000,51.464 22.000 C 51.276 22.000,50.948 22.187,50.735 22.417 C 50.484 22.688,50.170 22.833,49.833 22.833 C 49.497 22.833,49.183 22.688,48.931 22.417 C 48.719 22.188,48.391 22.000,48.203 22.000 C 47.691 22.000,47.333 21.825,47.333 21.576 C 47.333 21.441,47.042 21.310,46.589 21.242 C 46.067 21.164,45.814 21.036,45.744 20.815 C 45.676 20.599,45.488 20.500,45.147 20.500 C 44.832 20.500,44.510 20.348,44.265 20.083 L 43.878 19.667 36.127 19.667 L 28.376 19.667 28.270 20.328 M51.252 25.607 C 51.388 25.660,51.500 25.807,51.500 25.934 C 51.500 26.062,51.611 26.167,51.746 26.167 C 51.882 26.167,52.115 26.354,52.265 26.583 C 52.466 26.890,52.685 27.000,53.093 27.000 C 53.443 27.000,53.728 27.114,53.866 27.308 C 53.985 27.477,54.373 27.670,54.727 27.736 C 55.161 27.816,55.398 27.960,55.455 28.178 C 55.517 28.416,55.685 28.500,56.099 28.500 C 56.512 28.500,56.730 28.609,56.932 28.917 C 57.133 29.224,57.352 29.333,57.763 29.333 C 58.142 29.333,58.376 29.436,58.492 29.652 C 58.594 29.843,58.926 30.015,59.324 30.082 C 59.768 30.157,60.020 30.299,60.088 30.513 C 60.158 30.735,60.342 30.833,60.686 30.833 C 61.002 30.833,61.323 30.985,61.569 31.250 C 61.821 31.522,62.135 31.667,62.472 31.667 C 62.814 31.667,63.047 31.777,63.163 31.993 C 63.261 32.177,63.596 32.368,63.930 32.430 C 64.256 32.491,64.611 32.682,64.718 32.854 C 64.834 33.039,65.104 33.167,65.381 33.167 C 65.666 33.167,66.000 33.330,66.235 33.583 C 66.448 33.813,66.776 34.000,66.964 34.000 C 67.481 34.000,67.833 34.175,67.833 34.433 C 67.833 34.573,68.098 34.705,68.513 34.771 C 68.905 34.834,69.275 35.011,69.387 35.190 C 69.493 35.361,69.744 35.500,69.944 35.500 C 70.144 35.500,70.531 35.688,70.803 35.917 C 71.075 36.146,71.472 36.333,71.685 36.333 C 71.898 36.333,72.247 36.502,72.461 36.708 C 72.676 36.915,73.025 37.252,73.236 37.458 C 73.448 37.665,73.820 37.833,74.062 37.833 C 74.324 37.833,74.649 38.002,74.864 38.250 C 75.088 38.506,75.404 38.667,75.687 38.667 C 75.945 38.667,76.243 38.802,76.366 38.975 C 76.485 39.144,76.864 39.335,77.206 39.398 C 77.568 39.466,77.902 39.651,78.004 39.841 C 78.115 40.049,78.353 40.167,78.661 40.167 C 79.121 40.167,79.667 40.529,79.667 40.834 C 79.667 40.913,79.807 41.022,79.979 41.077 C 80.193 41.145,80.319 41.389,80.382 41.854 C 80.439 42.278,80.603 42.624,80.820 42.776 C 81.019 42.915,81.167 43.202,81.167 43.449 C 81.167 43.693,81.346 44.045,81.583 44.265 C 81.837 44.500,82.000 44.834,82.000 45.119 C 82.000 45.406,82.129 45.667,82.333 45.795 C 82.519 45.910,82.667 46.183,82.667 46.409 C 82.667 46.633,82.854 47.018,83.083 47.266 C 83.313 47.513,83.500 47.902,83.500 48.130 C 83.500 48.359,83.687 48.719,83.917 48.931 C 84.155 49.152,84.333 49.503,84.333 49.750 C 84.333 49.997,84.155 50.348,83.917 50.569 C 83.687 50.781,83.500 51.141,83.500 51.370 C 83.500 51.598,83.313 51.987,83.083 52.234 C 82.852 52.484,82.667 52.885,82.667 53.135 C 82.667 53.406,82.533 53.670,82.333 53.795 C 82.142 53.914,82.000 54.183,82.000 54.426 C 82.000 54.663,81.817 55.019,81.583 55.235 C 81.354 55.448,81.167 55.808,81.167 56.036 C 81.167 56.265,80.979 56.654,80.750 56.901 C 80.521 57.148,80.333 57.524,80.333 57.735 C 80.333 58.320,79.296 59.333,78.697 59.333 C 78.356 59.333,78.121 59.461,77.932 59.750 C 77.730 60.058,77.512 60.167,77.099 60.167 C 76.685 60.167,76.517 60.251,76.455 60.489 C 76.398 60.706,76.161 60.850,75.727 60.931 C 75.373 60.997,74.985 61.189,74.866 61.359 C 74.728 61.553,74.443 61.667,74.093 61.667 C 73.685 61.667,73.466 61.777,73.265 62.083 C 73.115 62.313,72.882 62.500,72.746 62.500 C 72.611 62.500,72.500 62.604,72.500 62.732 C 72.500 62.982,72.151 63.167,71.677 63.167 C 71.515 63.167,71.180 63.354,70.932 63.583 C 70.664 63.832,70.285 64.000,69.991 64.000 C 69.721 64.000,69.500 64.070,69.500 64.155 C 69.500 64.470,68.961 64.833,68.494 64.833 C 68.194 64.833,67.949 64.951,67.845 65.144 C 67.748 65.326,67.416 65.498,67.048 65.557 C 66.674 65.617,66.331 65.796,66.207 65.996 C 66.061 66.230,65.819 66.333,65.415 66.333 C 65.095 66.333,64.833 66.403,64.833 66.488 C 64.833 66.803,64.295 67.167,63.827 67.167 C 63.526 67.167,63.282 67.284,63.177 67.481 C 63.083 67.657,62.736 67.846,62.385 67.912 C 62.042 67.976,61.661 68.172,61.538 68.348 C 61.391 68.557,61.117 68.667,60.741 68.667 C 60.348 68.667,60.167 68.744,60.167 68.911 C 60.167 69.209,59.658 69.500,59.134 69.500 C 58.921 69.500,58.654 69.649,58.540 69.831 C 58.416 70.030,58.067 70.205,57.671 70.269 C 57.230 70.339,56.976 70.479,56.910 70.687 C 56.839 70.910,56.652 71.000,56.258 71.000 C 55.852 71.000,55.632 71.111,55.432 71.417 C 55.244 71.704,55.008 71.833,54.670 71.833 C 54.371 71.833,54.020 71.995,53.765 72.250 C 53.503 72.512,53.160 72.667,52.841 72.667 C 52.496 72.667,52.333 72.749,52.333 72.922 C 52.333 73.062,52.202 73.225,52.042 73.284 C 51.881 73.344,51.585 73.566,51.383 73.779 C 51.066 74.114,50.855 74.167,49.833 74.167 C 48.812 74.167,48.601 74.114,48.284 73.779 C 48.082 73.566,47.785 73.344,47.625 73.284 C 47.465 73.225,47.333 73.062,47.333 72.922 C 47.333 72.769,47.183 72.666,46.958 72.664 C 46.292 72.660,45.847 72.471,45.744 72.149 C 45.672 71.921,45.487 71.833,45.076 71.833 C 44.654 71.833,44.438 71.726,44.235 71.417 C 44.034 71.111,43.815 71.000,43.409 71.000 C 43.014 71.000,42.827 70.910,42.757 70.687 C 42.690 70.479,42.436 70.339,41.995 70.269 C 41.600 70.205,41.251 70.030,41.127 69.831 C 41.013 69.649,40.745 69.500,40.532 69.500 C 40.009 69.500,39.500 69.209,39.500 68.911 C 39.500 68.744,39.319 68.667,38.926 68.667 C 38.550 68.667,38.275 68.557,38.129 68.348 C 38.006 68.172,37.625 67.976,37.281 67.912 C 36.931 67.846,36.584 67.657,36.490 67.481 C 36.384 67.284,36.141 67.167,35.839 67.167 C 35.372 67.167,34.833 66.803,34.833 66.488 C 34.833 66.403,34.571 66.333,34.251 66.333 C 33.847 66.333,33.605 66.230,33.460 65.996 C 33.336 65.796,32.992 65.617,32.619 65.557 C 32.250 65.498,31.919 65.326,31.821 65.144 C 31.718 64.951,31.473 64.833,31.173 64.833 C 30.705 64.833,30.167 64.470,30.167 64.155 C 30.167 64.070,29.946 64.000,29.675 64.000 C 29.382 64.000,29.002 63.832,28.734 63.583 C 28.487 63.354,28.152 63.167,27.989 63.167 C 27.527 63.167,27.167 62.984,27.167 62.750 C 27.167 62.632,26.988 62.491,26.770 62.437 C 26.552 62.382,26.334 62.186,26.286 62.002 C 26.219 61.746,26.059 61.667,25.608 61.667 C 25.225 61.667,24.943 61.559,24.801 61.359 C 24.681 61.189,24.294 60.997,23.940 60.931 C 23.506 60.850,23.269 60.706,23.212 60.489 C 23.150 60.251,22.981 60.167,22.568 60.167 C 22.154 60.167,21.936 60.058,21.735 59.750 C 21.546 59.461,21.311 59.333,20.970 59.333 C 20.361 59.333,19.333 58.319,19.333 57.719 C 19.333 57.498,19.146 57.144,18.917 56.931 C 18.665 56.698,18.500 56.362,18.500 56.083 C 18.500 55.805,18.335 55.468,18.083 55.235 C 17.850 55.019,17.667 54.663,17.667 54.426 C 17.667 54.183,17.524 53.914,17.333 53.795 C 17.129 53.667,17.000 53.406,17.000 53.119 C 17.000 52.834,16.837 52.500,16.583 52.265 C 16.332 52.032,16.167 51.695,16.167 51.417 C 16.167 51.138,16.001 50.802,15.750 50.569 C 15.213 50.071,15.213 49.429,15.750 48.931 C 16.001 48.698,16.167 48.362,16.167 48.083 C 16.167 47.805,16.332 47.468,16.583 47.235 C 16.817 47.019,17.000 46.663,17.000 46.426 C 17.000 46.183,17.142 45.914,17.333 45.795 C 17.538 45.667,17.667 45.406,17.667 45.119 C 17.667 44.834,17.830 44.500,18.083 44.265 C 18.320 44.045,18.500 43.693,18.500 43.449 C 18.500 43.202,18.648 42.915,18.847 42.776 C 19.064 42.624,19.228 42.278,19.285 41.854 C 19.347 41.389,19.474 41.145,19.688 41.077 C 19.860 41.022,20.000 40.913,20.000 40.834 C 20.000 40.529,20.546 40.167,21.006 40.167 C 21.317 40.167,21.551 40.049,21.666 39.834 C 21.778 39.626,22.091 39.463,22.505 39.396 C 22.872 39.338,23.167 39.197,23.167 39.080 C 23.167 38.835,23.534 38.667,24.067 38.667 C 24.272 38.667,24.603 38.479,24.802 38.250 C 25.018 38.002,25.343 37.833,25.605 37.833 C 25.847 37.833,26.218 37.665,26.430 37.458 C 26.642 37.252,26.991 36.915,27.205 36.708 C 27.420 36.502,27.795 36.333,28.039 36.333 C 28.284 36.333,28.543 36.232,28.617 36.108 C 28.789 35.816,29.394 35.500,29.782 35.500 C 29.950 35.500,30.174 35.361,30.280 35.190 C 30.392 35.011,30.762 34.834,31.153 34.771 C 31.568 34.705,31.833 34.573,31.833 34.433 C 31.833 34.175,32.186 34.000,32.703 34.000 C 32.891 34.000,33.219 33.813,33.431 33.583 C 33.666 33.330,34.000 33.167,34.285 33.167 C 34.562 33.167,34.833 33.039,34.948 32.854 C 35.056 32.682,35.410 32.491,35.736 32.430 C 36.071 32.368,36.405 32.177,36.504 31.993 C 36.619 31.777,36.853 31.667,37.195 31.667 C 37.532 31.667,37.846 31.522,38.098 31.250 C 38.343 30.985,38.665 30.833,38.981 30.833 C 39.324 30.833,39.509 30.735,39.579 30.513 C 39.647 30.299,39.899 30.157,40.342 30.082 C 40.741 30.015,41.072 29.843,41.175 29.652 C 41.290 29.436,41.524 29.333,41.903 29.333 C 42.315 29.333,42.533 29.224,42.735 28.917 C 42.939 28.604,43.153 28.500,43.587 28.500 C 43.985 28.500,44.167 28.423,44.167 28.256 C 44.167 27.957,44.676 27.667,45.199 27.667 C 45.412 27.667,45.680 27.517,45.795 27.333 C 45.936 27.107,46.183 27.000,46.566 27.000 C 46.982 27.000,47.199 26.892,47.401 26.583 C 47.551 26.354,47.785 26.167,47.921 26.167 C 48.056 26.167,48.167 26.056,48.167 25.920 C 48.167 25.784,48.373 25.628,48.625 25.572 C 48.877 25.516,49.158 25.442,49.250 25.407 C 49.453 25.330,50.907 25.475,51.252 25.607 M223.236 31.934 C 223.572 32.063,223.574 32.398,223.242 32.674 C 222.916 32.944,222.398 32.507,222.555 32.096 C 222.664 31.813,222.822 31.776,223.236 31.934 M34.625 44.692 C 33.468 45.924,33.479 46.768,34.670 48.003 L 35.506 48.871 36.628 48.806 C 37.912 48.731,38.533 48.293,38.727 47.323 C 38.787 47.024,38.989 46.672,39.176 46.541 C 39.514 46.304,39.514 46.301,39.091 45.910 C 38.858 45.693,38.667 45.357,38.667 45.162 C 38.667 44.373,37.802 43.833,36.554 43.841 L 35.417 43.849 34.625 44.692 M61.458 44.331 C 61.206 44.595,61.000 44.970,61.000 45.164 C 61.000 45.358,60.809 45.693,60.575 45.910 C 60.153 46.301,60.152 46.304,60.491 46.541 C 60.678 46.672,60.880 47.024,60.940 47.323 C 61.134 48.293,61.754 48.731,63.039 48.806 L 64.161 48.871 64.997 48.003 C 66.199 46.756,66.203 45.915,65.015 44.682 L 64.197 43.833 63.057 43.841 C 62.022 43.849,61.874 43.894,61.458 44.331 M0.000 77.417 L 0.000 99.500 22.083 99.500 C 41.602 99.500,44.167 99.471,44.167 99.250 C 44.167 99.041,43.817 99.000,42.019 99.000 C 39.912 99.000,39.866 98.992,39.599 98.583 C 39.345 98.197,39.230 98.167,38.002 98.167 C 36.870 98.167,36.654 98.121,36.508 97.848 C 36.370 97.590,36.070 97.508,34.914 97.412 C 33.767 97.316,33.458 97.232,33.323 96.980 C 33.210 96.769,32.972 96.667,32.597 96.667 C 32.185 96.667,31.967 96.557,31.765 96.250 C 31.533 95.895,31.365 95.833,30.640 95.833 C 29.946 95.833,29.717 95.756,29.402 95.417 C 29.157 95.152,28.835 95.000,28.519 95.000 C 28.169 95.000,27.991 94.902,27.917 94.667 C 27.838 94.419,27.664 94.333,27.243 94.333 C 26.820 94.333,26.604 94.226,26.401 93.917 C 26.241 93.672,25.970 93.500,25.744 93.500 C 25.189 93.500,24.833 93.331,24.833 93.069 C 24.833 92.943,24.653 92.794,24.432 92.739 C 24.212 92.684,23.994 92.495,23.948 92.319 C 23.885 92.079,23.715 92.000,23.262 92.000 C 22.781 92.000,22.621 91.916,22.470 91.583 C 22.365 91.354,22.207 91.167,22.117 91.167 C 22.028 91.167,21.781 90.979,21.569 90.750 C 21.354 90.519,20.996 90.333,20.764 90.333 C 20.516 90.333,20.272 90.198,20.167 90.000 C 20.069 89.817,19.877 89.667,19.740 89.667 C 19.603 89.667,19.420 89.479,19.333 89.250 C 19.246 89.021,19.058 88.833,18.916 88.833 C 18.773 88.833,18.608 88.702,18.549 88.542 C 18.401 88.141,18.165 88.006,17.609 88.003 C 17.277 88.001,17.109 87.901,17.048 87.667 C 17.000 87.483,16.889 87.333,16.801 87.333 C 16.363 87.333,11.500 82.147,11.500 81.681 C 11.500 81.340,11.402 81.180,11.154 81.115 C 10.964 81.065,10.768 80.869,10.718 80.679 C 10.668 80.489,10.517 80.333,10.382 80.333 C 10.246 80.333,10.097 80.187,10.050 80.008 C 10.003 79.829,9.786 79.564,9.566 79.421 C 9.299 79.245,9.167 79.001,9.167 78.682 C 9.167 78.357,9.034 78.118,8.750 77.932 C 8.521 77.782,8.333 77.557,8.333 77.432 C 8.333 77.308,8.195 77.169,8.025 77.125 C 7.815 77.070,7.682 76.828,7.608 76.367 C 7.532 75.893,7.399 75.657,7.166 75.583 C 6.983 75.525,6.833 75.384,6.833 75.269 C 6.833 75.154,6.646 74.897,6.417 74.698 C 6.160 74.475,6.000 74.159,6.000 73.875 C 6.000 73.594,5.869 73.332,5.667 73.205 C 5.476 73.086,5.333 72.817,5.333 72.574 C 5.333 72.337,5.150 71.981,4.917 71.765 C 4.649 71.517,4.500 71.198,4.500 70.875 C 4.500 70.522,4.376 70.290,4.083 70.099 C 3.723 69.863,3.667 69.702,3.667 68.919 C 3.667 68.197,3.602 67.977,3.348 67.841 C 3.156 67.738,2.985 67.406,2.917 67.000 C 2.848 66.594,2.678 66.262,2.485 66.159 C 2.213 66.013,2.167 65.797,2.167 64.680 C 2.167 63.468,2.136 63.351,1.750 63.099 C 1.364 62.846,1.333 62.729,1.333 61.516 C 1.333 60.387,1.287 60.176,0.995 59.979 C 0.693 59.775,0.645 59.510,0.552 57.542 C 0.473 55.854,0.396 55.333,0.224 55.333 C 0.037 55.333,0.000 59.025,0.000 77.417 M35.276 60.789 C 34.979 62.621,36.076 63.519,37.266 62.417 C 37.804 61.918,38.536 61.875,38.952 62.317 C 39.142 62.520,39.602 62.678,40.220 62.755 C 40.898 62.839,41.248 62.969,41.385 63.187 C 41.536 63.429,41.780 63.500,42.465 63.500 C 43.194 63.500,43.417 63.573,43.735 63.917 C 44.077 64.285,44.257 64.333,45.298 64.333 L 46.474 64.333 47.655 65.500 L 48.836 66.667 49.833 66.667 L 50.831 66.667 52.012 65.500 L 53.192 64.333 54.369 64.333 C 55.409 64.333,55.590 64.285,55.931 63.917 C 56.253 63.570,56.471 63.500,57.231 63.500 C 57.977 63.500,58.162 63.443,58.243 63.188 C 58.320 62.945,58.575 62.849,59.379 62.758 C 60.074 62.679,60.514 62.535,60.715 62.320 C 61.130 61.875,61.861 61.917,62.401 62.417 C 63.591 63.519,64.688 62.621,64.391 60.789 C 64.206 59.651,61.500 60.322,61.500 61.506 C 61.500 61.594,61.240 61.667,60.923 61.667 C 60.540 61.667,60.229 61.792,59.998 62.041 C 59.705 62.355,59.437 62.425,58.330 62.475 C 57.238 62.524,56.995 62.586,56.916 62.835 C 56.844 63.062,56.572 63.164,55.809 63.253 C 55.161 63.328,54.683 63.484,54.481 63.685 C 54.228 63.939,53.919 64.000,52.888 64.000 L 51.610 64.000 50.891 63.250 C 50.496 62.837,50.020 62.500,49.833 62.500 C 49.647 62.500,49.171 62.837,48.776 63.250 L 48.057 64.000 46.779 64.000 C 45.747 64.000,45.439 63.939,45.185 63.685 C 44.984 63.484,44.505 63.328,43.858 63.253 C 43.094 63.164,42.822 63.062,42.751 62.835 C 42.672 62.586,42.429 62.524,41.336 62.475 C 40.230 62.425,39.961 62.355,39.669 62.041 C 39.437 61.792,39.127 61.667,38.744 61.667 C 38.426 61.667,38.167 61.594,38.167 61.506 C 38.167 60.322,35.461 59.651,35.276 60.789 " stroke="none" fill="#ffffff" fill-rule="evenodd"></path><path id="path1" d="M44.833 0.244 C 44.833 0.664,44.316 0.796,42.176 0.923 C 40.549 1.020,40.035 1.110,39.789 1.339 C 39.566 1.546,39.125 1.649,38.274 1.692 C 37.333 1.740,36.990 1.830,36.691 2.108 C 36.398 2.381,36.043 2.479,35.167 2.528 C 34.395 2.572,33.922 2.685,33.710 2.878 C 33.536 3.034,33.144 3.213,32.838 3.274 C 32.532 3.335,32.143 3.524,31.974 3.693 C 31.783 3.884,31.427 4.000,31.032 4.000 C 30.618 4.000,30.203 4.144,29.833 4.417 C 29.523 4.646,29.125 4.833,28.950 4.833 C 28.775 4.833,28.409 5.021,28.136 5.250 C 27.864 5.479,27.471 5.667,27.263 5.667 C 27.055 5.667,26.749 5.817,26.583 6.000 C 26.417 6.183,26.149 6.333,25.987 6.333 C 25.825 6.333,25.469 6.521,25.197 6.750 C 24.925 6.979,24.660 7.167,24.609 7.167 C 24.557 7.167,24.328 7.354,24.098 7.583 C 23.869 7.813,23.509 8.000,23.298 8.000 C 23.086 8.000,22.820 8.150,22.705 8.333 C 22.591 8.517,22.415 8.667,22.314 8.667 C 22.214 8.667,21.984 8.854,21.804 9.083 C 21.623 9.313,21.313 9.502,21.113 9.505 C 20.901 9.508,20.266 9.962,19.583 10.599 C 18.942 11.198,18.187 11.786,17.906 11.906 C 17.248 12.187,12.195 17.233,11.900 17.905 C 11.776 18.186,11.187 18.942,10.590 19.583 C 9.988 20.231,9.504 20.903,9.503 21.095 C 9.501 21.285,9.331 21.596,9.125 21.787 C 8.347 22.508,8.041 22.934,7.926 23.458 C 7.861 23.755,7.706 24.055,7.583 24.124 C 7.269 24.300,6.525 25.427,6.404 25.909 C 6.349 26.129,6.160 26.438,5.985 26.597 C 5.810 26.755,5.667 27.055,5.667 27.263 C 5.667 27.471,5.479 27.864,5.250 28.136 C 5.021 28.409,4.833 28.779,4.833 28.960 C 4.833 29.141,4.683 29.480,4.499 29.714 C 4.315 29.948,4.116 30.490,4.057 30.920 C 3.998 31.349,3.820 31.824,3.661 31.975 C 3.502 32.126,3.318 32.512,3.251 32.833 C 3.184 33.154,3.014 33.547,2.874 33.707 C 2.727 33.874,2.573 34.488,2.512 35.154 C 2.439 35.953,2.306 36.421,2.083 36.667 C 1.843 36.932,1.743 37.335,1.695 38.221 C 1.652 39.020,1.540 39.519,1.357 39.724 C 1.155 39.951,1.040 40.606,0.917 42.224 C 0.762 44.259,0.723 44.428,0.375 44.581 L 0.000 44.746 0.000 49.790 C 0.000 54.108,0.035 54.833,0.244 54.833 C 0.660 54.833,0.793 55.345,0.918 57.417 C 1.006 58.891,1.108 59.497,1.307 59.722 C 1.476 59.914,1.614 60.481,1.676 61.242 C 1.749 62.131,1.873 62.581,2.138 62.918 C 2.406 63.259,2.500 63.607,2.500 64.264 C 2.500 64.888,2.623 65.380,2.917 65.933 C 3.146 66.364,3.333 66.844,3.333 66.999 C 3.333 67.154,3.473 67.408,3.644 67.563 C 3.831 67.732,3.994 68.177,4.054 68.678 C 4.108 69.137,4.306 69.707,4.493 69.945 C 4.680 70.184,4.833 70.513,4.833 70.677 C 4.833 70.842,4.934 71.077,5.057 71.200 C 5.400 71.542,5.667 72.107,5.667 72.489 C 5.667 72.678,5.745 72.833,5.842 72.833 C 5.938 72.833,6.125 73.091,6.256 73.406 C 6.525 74.049,7.142 74.999,7.568 75.425 C 7.723 75.580,7.892 75.919,7.944 76.179 C 7.996 76.438,8.367 76.984,8.769 77.392 C 9.171 77.800,9.500 78.272,9.501 78.442 C 9.501 78.611,10.026 79.325,10.667 80.027 C 11.309 80.729,11.833 81.404,11.834 81.527 C 11.834 81.750,14.415 84.607,15.487 85.571 C 15.800 85.853,16.435 86.440,16.898 86.875 C 17.361 87.310,17.833 87.667,17.947 87.667 C 18.061 87.667,18.738 88.192,19.452 88.833 C 20.165 89.475,20.881 90.000,21.043 90.000 C 21.204 90.000,21.555 90.206,21.822 90.458 C 22.708 91.294,22.991 91.491,23.456 91.601 C 23.709 91.660,24.067 91.849,24.250 92.020 C 24.970 92.692,25.643 93.167,25.877 93.167 C 26.011 93.167,26.313 93.317,26.547 93.501 C 26.781 93.686,27.210 93.884,27.500 93.942 C 27.789 94.000,28.114 94.186,28.220 94.357 C 28.326 94.527,28.550 94.667,28.718 94.667 C 29.064 94.667,29.637 94.946,29.967 95.276 C 30.090 95.399,30.493 95.500,30.863 95.500 C 31.337 95.500,31.681 95.623,32.030 95.917 C 32.303 96.146,32.680 96.333,32.868 96.333 C 33.057 96.333,33.445 96.476,33.730 96.651 C 34.016 96.826,34.752 97.022,35.366 97.086 C 36.139 97.168,36.569 97.300,36.767 97.518 C 36.992 97.768,37.285 97.833,38.170 97.833 C 39.051 97.833,39.382 97.907,39.730 98.180 C 40.100 98.472,40.484 98.542,42.127 98.619 C 44.158 98.715,44.667 98.842,44.667 99.256 C 44.667 99.465,45.386 99.500,49.659 99.500 L 54.652 99.500 55.042 99.109 C 55.396 98.755,55.622 98.710,57.461 98.625 C 59.181 98.546,59.558 98.479,59.934 98.183 C 60.285 97.907,60.614 97.833,61.497 97.833 C 62.390 97.833,62.674 97.769,62.906 97.512 C 63.111 97.285,63.527 97.156,64.307 97.076 C 64.917 97.013,65.642 96.829,65.917 96.666 C 66.192 96.503,66.653 96.319,66.941 96.259 C 67.229 96.198,67.597 96.002,67.759 95.824 C 67.943 95.620,68.274 95.498,68.651 95.495 C 68.988 95.492,69.541 95.310,69.917 95.079 C 70.283 94.853,70.703 94.668,70.849 94.668 C 70.995 94.667,71.243 94.525,71.399 94.352 C 71.556 94.180,71.911 93.993,72.189 93.937 C 72.466 93.882,72.885 93.686,73.119 93.501 C 73.353 93.317,73.625 93.167,73.722 93.167 C 73.960 93.167,75.200 92.317,75.452 91.980 C 75.564 91.832,75.878 91.666,76.152 91.611 C 76.649 91.512,76.932 91.319,77.844 90.458 C 78.112 90.206,78.462 90.000,78.624 90.000 C 78.785 90.000,79.501 89.475,80.215 88.833 C 80.928 88.192,81.619 87.667,81.751 87.667 C 82.102 87.667,87.477 82.257,87.755 81.624 C 87.886 81.327,88.446 80.596,89.000 80.000 C 89.555 79.404,90.054 78.729,90.109 78.500 C 90.165 78.271,90.407 77.882,90.647 77.635 C 91.470 76.790,91.619 76.583,91.726 76.137 C 91.785 75.891,91.957 75.567,92.108 75.416 C 92.513 75.011,93.066 74.156,93.316 73.547 C 93.437 73.252,93.640 72.924,93.768 72.818 C 93.896 72.713,94.000 72.458,94.000 72.252 C 94.000 72.046,94.146 71.693,94.324 71.467 C 94.502 71.241,94.772 70.743,94.925 70.361 C 95.078 69.979,95.264 69.667,95.339 69.667 C 95.415 69.667,95.529 69.245,95.593 68.730 C 95.668 68.132,95.823 67.696,96.022 67.526 C 96.193 67.379,96.333 67.142,96.333 66.998 C 96.333 66.855,96.488 66.440,96.676 66.077 C 96.865 65.714,97.075 64.914,97.144 64.299 C 97.220 63.610,97.381 63.057,97.563 62.856 C 97.758 62.640,97.898 62.108,97.977 61.275 C 98.050 60.514,98.202 59.901,98.362 59.718 C 98.558 59.496,98.658 58.871,98.746 57.333 C 98.835 55.752,98.930 55.176,99.140 54.941 C 99.560 54.471,99.557 45.294,99.137 44.667 C 98.932 44.361,98.826 43.682,98.739 42.121 C 98.646 40.446,98.565 39.960,98.360 39.845 C 98.173 39.740,98.065 39.310,97.981 38.338 C 97.900 37.390,97.774 36.877,97.566 36.648 C 97.375 36.437,97.223 35.895,97.142 35.139 C 97.071 34.475,96.904 33.837,96.760 33.678 C 96.619 33.522,96.455 33.137,96.395 32.822 C 96.335 32.508,96.157 32.126,96.000 31.974 C 95.842 31.822,95.664 31.323,95.603 30.866 C 95.543 30.409,95.386 29.946,95.255 29.838 C 95.124 29.729,94.927 29.365,94.818 29.028 C 94.708 28.692,94.479 28.238,94.309 28.019 C 94.139 27.801,94.000 27.456,94.000 27.253 C 94.000 27.051,93.857 26.755,93.682 26.597 C 93.507 26.438,93.315 26.117,93.256 25.882 C 93.145 25.437,92.397 24.343,92.056 24.124 C 91.948 24.055,91.809 23.770,91.748 23.492 C 91.687 23.213,91.451 22.782,91.223 22.534 C 90.996 22.286,90.675 21.933,90.509 21.750 C 90.344 21.567,90.164 21.229,90.108 21.000 C 90.053 20.771,89.552 20.096,88.994 19.500 C 88.436 18.904,87.877 18.192,87.751 17.917 C 87.364 17.073,82.047 11.833,81.577 11.833 C 81.470 11.833,80.829 11.309,80.150 10.669 C 79.472 10.029,78.767 9.503,78.583 9.501 C 78.400 9.498,77.885 9.160,77.439 8.748 C 76.992 8.337,76.502 8.000,76.350 8.000 C 76.197 8.000,75.574 7.625,74.965 7.167 C 74.356 6.708,73.752 6.333,73.622 6.333 C 73.492 6.333,73.249 6.183,73.083 6.000 C 72.917 5.817,72.620 5.667,72.423 5.667 C 72.226 5.667,71.811 5.479,71.500 5.250 C 71.189 5.021,70.810 4.833,70.657 4.833 C 70.504 4.833,70.182 4.679,69.942 4.490 C 69.703 4.302,69.117 4.086,68.641 4.011 C 68.165 3.936,67.695 3.765,67.596 3.632 C 67.497 3.499,67.159 3.338,66.844 3.276 C 66.529 3.214,66.131 3.036,65.960 2.880 C 65.755 2.695,65.266 2.574,64.533 2.527 C 63.717 2.475,63.261 2.350,62.837 2.061 C 62.389 1.757,62.032 1.667,61.279 1.667 C 60.592 1.667,60.170 1.574,59.859 1.354 C 59.517 1.113,58.963 1.014,57.417 0.920 C 55.344 0.793,54.833 0.660,54.833 0.244 C 54.833 0.035,54.113 0.000,49.833 0.000 C 45.553 0.000,44.833 0.035,44.833 0.244 M44.538 19.757 C 44.806 19.982,45.160 20.167,45.324 20.167 C 45.488 20.167,45.812 20.317,46.045 20.500 C 46.279 20.683,46.583 20.833,46.722 20.833 C 46.861 20.833,47.197 21.021,47.470 21.250 C 47.742 21.479,48.123 21.667,48.316 21.667 C 48.509 21.667,48.817 21.817,49.000 22.000 C 49.185 22.185,49.556 22.333,49.833 22.333 C 50.111 22.333,50.481 22.185,50.667 22.000 C 50.850 21.817,51.158 21.667,51.351 21.667 C 51.544 21.667,51.925 21.479,52.197 21.250 C 52.469 21.021,52.806 20.833,52.945 20.833 C 53.084 20.833,53.388 20.683,53.621 20.500 C 53.854 20.317,54.179 20.167,54.343 20.167 C 54.507 20.167,54.861 19.982,55.130 19.755 L 55.619 19.344 63.351 19.327 C 71.640 19.310,71.582 19.305,71.745 19.957 C 71.805 20.195,71.999 20.575,72.177 20.801 C 72.355 21.027,72.500 21.341,72.500 21.500 C 72.500 21.659,72.645 21.973,72.823 22.199 C 73.001 22.425,73.196 22.807,73.256 23.048 C 73.317 23.289,73.467 23.570,73.591 23.673 C 73.715 23.776,73.904 24.126,74.011 24.451 C 74.235 25.128,75.084 26.445,75.356 26.535 C 75.456 26.569,75.600 26.985,75.675 27.460 C 75.750 27.936,75.889 28.420,75.983 28.537 C 76.078 28.654,76.383 29.022,76.661 29.355 C 76.975 29.732,77.167 30.148,77.167 30.457 C 77.167 30.730,77.354 31.230,77.583 31.567 C 77.813 31.905,78.000 32.235,78.000 32.301 C 78.000 32.366,78.150 32.513,78.333 32.628 C 78.524 32.747,78.667 33.017,78.667 33.257 C 78.667 33.902,79.361 35.274,79.978 35.849 C 80.174 36.031,80.333 36.353,80.333 36.564 C 80.333 36.775,80.483 37.084,80.667 37.250 C 80.850 37.416,81.000 37.748,81.000 37.989 C 81.000 38.520,81.839 39.312,82.636 39.534 C 82.940 39.619,83.333 39.833,83.511 40.011 C 83.688 40.188,83.969 40.333,84.134 40.333 C 84.300 40.333,84.689 40.521,85.000 40.750 C 85.311 40.979,85.735 41.167,85.943 41.167 C 86.151 41.167,86.397 41.308,86.490 41.480 C 86.780 42.023,87.585 42.016,87.909 41.469 C 88.061 41.211,88.253 41.000,88.335 41.000 C 88.418 41.000,88.533 40.742,88.592 40.428 C 88.651 40.113,88.842 39.726,89.017 39.568 C 89.191 39.411,89.333 39.112,89.333 38.904 C 89.333 38.696,89.521 38.303,89.750 38.030 C 89.979 37.758,90.167 37.389,90.167 37.210 C 90.167 37.031,90.315 36.751,90.497 36.586 C 90.678 36.422,90.873 36.044,90.928 35.746 C 90.988 35.430,91.296 34.945,91.672 34.579 C 93.086 33.197,95.245 34.499,93.917 35.932 C 93.688 36.180,93.500 36.547,93.500 36.749 C 93.500 36.950,93.350 37.251,93.167 37.417 C 92.983 37.583,92.833 37.898,92.833 38.117 C 92.833 38.336,92.646 38.703,92.417 38.932 C 92.188 39.161,92.000 39.520,92.000 39.729 C 92.000 39.938,91.813 40.285,91.583 40.500 C 91.341 40.728,91.167 41.077,91.167 41.337 C 91.167 41.581,91.025 41.910,90.852 42.066 C 90.680 42.222,90.492 42.584,90.435 42.869 C 90.378 43.154,90.181 43.492,89.999 43.620 C 89.803 43.757,89.667 44.042,89.667 44.314 C 89.667 44.591,89.500 44.932,89.250 45.167 C 89.007 45.395,88.833 45.744,88.833 46.003 C 88.833 46.248,88.692 46.576,88.519 46.733 C 88.346 46.889,88.158 47.250,88.101 47.535 C 88.044 47.820,87.848 48.158,87.665 48.286 C 87.129 48.662,87.185 50.692,87.750 51.364 C 87.979 51.636,88.167 52.003,88.167 52.179 C 88.167 52.356,88.317 52.650,88.500 52.833 C 88.683 53.017,88.833 53.325,88.833 53.518 C 88.833 53.711,89.021 54.091,89.250 54.364 C 89.479 54.636,89.667 55.011,89.667 55.197 C 89.667 55.383,89.854 55.758,90.083 56.030 C 90.313 56.303,90.500 56.689,90.500 56.889 C 90.500 57.089,90.650 57.347,90.833 57.461 C 91.028 57.583,91.167 57.850,91.167 58.102 C 91.167 58.340,91.354 58.758,91.583 59.030 C 91.813 59.303,92.000 59.678,92.000 59.864 C 92.000 60.050,92.188 60.425,92.417 60.697 C 92.646 60.969,92.833 61.336,92.833 61.513 C 92.833 61.689,92.983 61.983,93.167 62.167 C 93.350 62.350,93.500 62.674,93.500 62.888 C 93.500 63.101,93.688 63.451,93.917 63.667 C 94.808 64.504,94.247 65.500,92.885 65.500 C 92.036 65.500,91.229 64.823,90.973 63.896 C 90.884 63.574,90.667 63.167,90.489 62.989 C 90.312 62.812,90.167 62.531,90.167 62.366 C 90.167 62.200,89.979 61.811,89.750 61.500 C 89.521 61.189,89.333 60.779,89.333 60.588 C 89.333 60.397,89.183 60.112,89.000 59.955 C 88.817 59.798,88.667 59.534,88.667 59.368 C 88.667 58.290,87.173 57.316,86.548 57.986 C 86.384 58.162,86.025 58.360,85.750 58.427 C 85.475 58.493,85.116 58.686,84.952 58.857 C 84.788 59.027,84.521 59.167,84.359 59.167 C 84.197 59.167,83.811 59.354,83.500 59.583 C 83.189 59.812,82.795 60.000,82.623 60.000 C 82.101 60.000,81.006 61.024,81.003 61.516 C 81.001 61.754,80.850 62.084,80.667 62.250 C 80.483 62.416,80.333 62.760,80.333 63.014 C 80.333 63.290,80.183 63.600,79.958 63.786 C 79.348 64.290,78.669 65.559,78.668 66.198 C 78.667 66.445,78.593 66.692,78.504 66.748 C 78.055 67.025,77.167 68.658,77.167 69.206 C 77.167 69.650,77.064 69.862,76.750 70.068 C 76.521 70.218,76.333 70.421,76.333 70.519 C 76.333 70.617,76.183 70.888,76.000 71.121 C 75.799 71.376,75.667 71.797,75.667 72.180 C 75.667 72.638,75.568 72.883,75.313 73.062 C 74.946 73.319,74.708 73.673,74.237 74.667 C 74.084 74.987,73.893 75.362,73.811 75.500 C 73.729 75.637,73.520 76.060,73.345 76.440 C 73.170 76.819,72.952 77.177,72.860 77.234 C 72.768 77.291,72.641 77.569,72.579 77.853 C 72.517 78.137,72.286 78.634,72.066 78.958 C 71.846 79.282,71.667 79.641,71.667 79.757 C 71.667 80.437,55.835 80.503,55.190 79.826 C 55.040 79.668,54.681 79.488,54.392 79.427 C 54.104 79.365,53.736 79.169,53.575 78.991 C 53.414 78.812,53.110 78.667,52.899 78.667 C 52.689 78.667,52.315 78.479,52.068 78.250 C 51.820 78.021,51.453 77.833,51.251 77.833 C 51.050 77.833,50.749 77.683,50.583 77.500 C 50.417 77.317,50.080 77.167,49.833 77.167 C 49.587 77.167,49.249 77.317,49.083 77.500 C 48.917 77.683,48.617 77.833,48.415 77.833 C 48.214 77.833,47.846 78.021,47.599 78.250 C 47.352 78.479,46.977 78.667,46.767 78.667 C 46.557 78.667,46.253 78.812,46.092 78.991 C 45.931 79.169,45.563 79.365,45.274 79.427 C 44.986 79.488,44.627 79.668,44.477 79.825 C 44.231 80.085,43.491 80.123,36.719 80.225 C 28.196 80.354,28.251 80.359,27.903 79.526 C 27.766 79.197,27.553 78.814,27.429 78.673 C 27.305 78.532,27.154 78.181,27.092 77.892 C 27.031 77.604,26.835 77.236,26.657 77.075 C 26.479 76.914,26.333 76.653,26.333 76.497 C 26.333 76.340,26.183 76.021,26.000 75.788 C 25.817 75.555,25.667 75.255,25.667 75.122 C 25.667 74.989,25.479 74.604,25.250 74.266 C 25.021 73.928,24.833 73.589,24.833 73.512 C 24.833 73.435,24.646 73.249,24.417 73.099 C 24.100 72.891,24.000 72.682,24.000 72.228 C 24.000 71.605,23.166 70.099,22.728 69.931 C 22.592 69.879,22.500 69.596,22.500 69.231 C 22.500 68.795,22.319 68.354,21.875 67.708 C 20.974 66.398,20.839 66.132,20.832 65.667 C 20.829 65.438,20.679 65.063,20.500 64.833 C 20.321 64.604,20.172 64.352,20.170 64.274 C 20.168 64.196,19.979 63.984,19.750 63.804 C 19.485 63.595,19.333 63.308,19.333 63.014 C 19.333 62.760,19.191 62.423,19.017 62.265 C 18.842 62.107,18.652 61.739,18.594 61.447 C 18.482 60.886,17.509 60.000,17.006 60.000 C 16.855 60.000,16.477 59.812,16.167 59.583 C 15.856 59.354,15.478 59.167,15.327 59.167 C 15.175 59.167,14.923 59.024,14.765 58.850 C 14.607 58.676,14.237 58.488,13.942 58.432 C 13.647 58.377,13.278 58.182,13.121 57.999 C 12.531 57.310,11.000 58.278,11.000 59.340 C 11.000 59.491,10.850 59.751,10.667 59.917 C 10.483 60.083,10.333 60.388,10.333 60.596 C 10.333 60.804,10.146 61.197,9.917 61.470 C 9.688 61.742,9.500 62.108,9.500 62.283 C 9.500 62.459,9.313 62.856,9.083 63.167 C 8.854 63.477,8.666 63.848,8.666 63.991 C 8.664 64.605,7.555 65.500,6.796 65.500 C 5.512 65.500,4.841 64.497,5.641 63.773 C 5.810 63.620,6.040 63.192,6.150 62.822 C 6.261 62.452,6.460 62.107,6.593 62.057 C 6.725 62.006,6.833 61.817,6.833 61.638 C 6.833 61.231,7.142 60.626,7.441 60.450 C 7.565 60.377,7.667 60.148,7.667 59.941 C 7.667 59.734,7.854 59.311,8.083 59.000 C 8.313 58.689,8.500 58.263,8.500 58.052 C 8.500 57.842,8.650 57.576,8.833 57.461 C 9.017 57.347,9.167 57.089,9.167 56.889 C 9.167 56.689,9.354 56.303,9.583 56.030 C 9.813 55.758,10.000 55.392,10.000 55.217 C 10.000 55.041,10.188 54.644,10.417 54.333 C 10.646 54.023,10.833 53.633,10.833 53.468 C 10.833 53.302,10.983 53.017,11.167 52.833 C 11.350 52.650,11.500 52.356,11.500 52.179 C 11.500 52.003,11.687 51.636,11.917 51.364 C 12.479 50.695,12.541 48.623,12.007 48.337 C 11.827 48.241,11.633 47.907,11.574 47.592 C 11.515 47.278,11.324 46.893,11.150 46.735 C 10.976 46.577,10.833 46.278,10.833 46.070 C 10.833 45.862,10.646 45.469,10.417 45.197 C 10.187 44.925,10.000 44.509,10.000 44.273 C 10.000 44.022,9.868 43.775,9.680 43.674 C 9.504 43.580,9.309 43.258,9.246 42.960 C 9.182 42.661,8.997 42.267,8.833 42.083 C 8.670 41.900,8.486 41.514,8.425 41.226 C 8.364 40.937,8.169 40.569,7.991 40.408 C 7.812 40.247,7.667 39.943,7.667 39.732 C 7.667 39.521,7.479 39.161,7.250 38.932 C 7.021 38.703,6.833 38.336,6.833 38.117 C 6.833 37.898,6.692 37.590,6.519 37.434 C 6.346 37.278,6.161 36.931,6.108 36.663 C 6.054 36.396,5.858 36.025,5.672 35.839 C 5.286 35.453,5.223 34.632,5.558 34.354 C 6.556 33.526,8.480 34.368,8.738 35.746 C 8.794 36.044,8.988 36.422,9.170 36.586 C 9.351 36.751,9.500 37.031,9.500 37.210 C 9.500 37.389,9.688 37.758,9.917 38.030 C 10.146 38.303,10.333 38.696,10.333 38.904 C 10.333 39.112,10.476 39.411,10.650 39.568 C 10.824 39.726,11.015 40.113,11.074 40.428 C 11.133 40.742,11.251 41.000,11.337 41.000 C 11.422 41.000,11.601 41.213,11.736 41.473 C 12.023 42.027,12.882 42.032,13.177 41.480 C 13.270 41.308,13.515 41.167,13.723 41.167 C 13.932 41.167,14.356 40.979,14.667 40.750 C 14.977 40.521,15.364 40.333,15.526 40.333 C 15.688 40.333,15.955 40.191,16.119 40.017 C 16.282 39.844,16.683 39.629,17.009 39.540 C 17.783 39.329,18.473 38.675,18.602 38.031 C 18.659 37.749,18.846 37.389,19.019 37.233 C 19.192 37.076,19.333 36.769,19.333 36.550 C 19.333 36.330,19.521 35.977,19.750 35.765 C 19.979 35.552,20.167 35.324,20.167 35.257 C 20.167 35.190,20.308 34.956,20.481 34.737 C 20.654 34.517,20.846 33.996,20.908 33.580 C 20.980 33.100,21.140 32.749,21.344 32.621 C 21.522 32.510,21.667 32.359,21.667 32.284 C 21.667 32.210,21.854 31.873,22.083 31.536 C 22.313 31.199,22.500 30.706,22.500 30.442 C 22.500 30.150,22.699 29.722,23.006 29.355 C 23.284 29.022,23.589 28.654,23.683 28.537 C 23.778 28.420,23.916 27.938,23.990 27.466 C 24.065 26.995,24.248 26.520,24.396 26.411 C 24.795 26.119,25.431 25.129,25.655 24.453 C 25.762 24.127,25.959 23.770,26.092 23.660 C 26.225 23.549,26.333 23.333,26.333 23.179 C 26.333 23.024,26.521 22.644,26.750 22.333 C 26.979 22.023,27.167 21.643,27.167 21.490 C 27.167 21.337,27.312 21.027,27.490 20.801 C 27.667 20.575,27.863 20.189,27.925 19.944 C 28.001 19.641,28.179 19.466,28.477 19.401 C 28.719 19.348,28.973 19.292,29.041 19.277 C 29.109 19.262,32.514 19.272,36.608 19.298 L 44.051 19.347 44.538 19.757 M48.315 26.322 C 47.892 26.588,47.501 26.924,47.445 27.069 C 47.385 27.226,47.148 27.333,46.864 27.333 C 46.601 27.333,46.256 27.476,46.098 27.650 C 45.941 27.824,45.564 28.013,45.262 28.070 C 44.960 28.127,44.578 28.322,44.414 28.503 C 44.249 28.685,43.903 28.833,43.645 28.833 C 43.327 28.833,43.086 28.968,42.901 29.250 C 42.720 29.526,42.475 29.667,42.173 29.667 C 41.923 29.667,41.584 29.815,41.420 29.997 C 41.255 30.178,40.864 30.375,40.549 30.434 C 40.234 30.493,39.889 30.682,39.782 30.854 C 39.674 31.026,39.423 31.167,39.223 31.167 C 39.023 31.167,38.636 31.354,38.364 31.583 C 38.091 31.813,37.703 32.000,37.500 32.000 C 37.297 32.000,36.909 32.188,36.636 32.417 C 36.364 32.646,36.008 32.833,35.846 32.833 C 35.684 32.833,35.423 32.976,35.265 33.150 C 35.107 33.324,34.731 33.513,34.429 33.570 C 34.126 33.627,33.745 33.822,33.580 34.003 C 33.416 34.185,33.153 34.333,32.997 34.333 C 32.840 34.333,32.533 34.472,32.314 34.642 C 32.096 34.812,31.641 35.041,31.305 35.151 C 30.969 35.261,30.607 35.454,30.502 35.581 C 30.396 35.708,30.096 35.859,29.833 35.917 C 29.571 35.974,29.270 36.125,29.165 36.252 C 29.060 36.379,28.707 36.571,28.381 36.679 C 27.692 36.906,26.643 37.585,26.450 37.929 C 26.377 38.060,26.109 38.167,25.854 38.167 C 25.576 38.167,25.235 38.333,25.000 38.583 C 24.764 38.835,24.424 39.000,24.143 39.000 C 23.852 39.000,23.613 39.122,23.504 39.326 C 23.402 39.516,23.068 39.701,22.706 39.768 C 22.364 39.832,21.985 40.023,21.866 40.192 C 21.746 40.361,21.461 40.500,21.232 40.500 C 20.715 40.500,19.737 41.523,19.600 42.208 C 19.547 42.475,19.352 42.885,19.168 43.119 C 18.984 43.353,18.833 43.637,18.833 43.750 C 18.833 43.863,18.695 44.134,18.525 44.353 C 18.356 44.571,18.163 44.975,18.096 45.250 C 18.030 45.525,17.841 45.900,17.676 46.083 C 17.512 46.267,17.330 46.618,17.272 46.863 C 17.214 47.109,17.053 47.423,16.914 47.562 C 16.776 47.701,16.617 48.038,16.563 48.312 C 16.508 48.586,16.321 48.962,16.148 49.148 C 15.773 49.551,15.742 50.050,16.075 50.326 C 16.208 50.436,16.406 50.802,16.516 51.138 C 16.625 51.475,16.854 51.929,17.024 52.147 C 17.194 52.366,17.333 52.676,17.333 52.835 C 17.333 52.995,17.442 53.216,17.575 53.326 C 17.708 53.436,17.905 53.802,18.013 54.138 C 18.120 54.475,18.297 54.862,18.405 55.000 C 18.690 55.363,19.667 57.308,19.667 57.512 C 19.667 57.941,20.733 59.000,21.165 59.000 C 21.428 59.000,21.753 59.168,21.969 59.417 C 22.168 59.646,22.508 59.833,22.723 59.833 C 22.939 59.833,23.249 59.982,23.414 60.163 C 23.578 60.345,23.970 60.542,24.284 60.601 C 24.599 60.660,24.944 60.849,25.052 61.021 C 25.175 61.219,25.439 61.333,25.771 61.333 C 26.146 61.333,26.373 61.452,26.568 61.750 C 26.718 61.979,26.921 62.167,27.019 62.167 C 27.117 62.167,27.388 62.317,27.621 62.500 C 27.854 62.683,28.151 62.833,28.281 62.833 C 28.411 62.833,28.794 63.021,29.131 63.250 C 29.468 63.479,29.865 63.667,30.013 63.667 C 30.161 63.667,30.414 63.812,30.575 63.991 C 30.736 64.169,31.079 64.361,31.337 64.417 C 31.595 64.474,31.974 64.666,32.178 64.844 C 32.383 65.021,32.675 65.167,32.826 65.167 C 32.978 65.167,33.356 65.354,33.667 65.583 C 33.977 65.812,34.367 66.000,34.532 66.000 C 34.698 66.000,34.986 66.152,35.172 66.339 C 35.358 66.525,35.739 66.723,36.018 66.779 C 36.298 66.835,36.614 67.020,36.720 67.190 C 36.834 67.373,37.106 67.500,37.381 67.500 C 37.666 67.500,38.000 67.663,38.235 67.917 C 38.448 68.146,38.790 68.333,38.995 68.333 C 39.200 68.333,39.591 68.521,39.864 68.750 C 40.136 68.979,40.540 69.167,40.761 69.167 C 40.983 69.167,41.257 69.316,41.372 69.500 C 41.499 69.703,41.761 69.833,42.041 69.833 C 42.325 69.833,42.641 69.993,42.864 70.250 C 43.087 70.505,43.404 70.667,43.685 70.667 C 43.974 70.667,44.263 70.820,44.470 71.083 C 44.693 71.366,44.962 71.500,45.310 71.500 C 45.651 71.500,45.881 71.611,46.000 71.833 C 46.107 72.033,46.349 72.167,46.604 72.167 C 46.849 72.167,47.316 72.411,47.699 72.739 C 49.347 74.149,50.320 74.149,51.967 72.739 C 52.351 72.411,52.818 72.167,53.062 72.167 C 53.318 72.167,53.560 72.033,53.667 71.833 C 53.780 71.622,54.016 71.500,54.310 71.500 C 54.591 71.500,54.931 71.335,55.167 71.083 C 55.393 70.843,55.744 70.667,55.999 70.667 C 56.262 70.667,56.586 70.498,56.802 70.250 C 57.025 69.993,57.341 69.833,57.625 69.833 C 57.906 69.833,58.168 69.703,58.295 69.500 C 58.409 69.316,58.683 69.167,58.905 69.167 C 59.127 69.167,59.531 68.979,59.803 68.750 C 60.075 68.521,60.466 68.333,60.672 68.333 C 60.877 68.333,61.219 68.146,61.431 67.917 C 61.644 67.688,61.997 67.500,62.216 67.500 C 62.436 67.500,62.743 67.359,62.899 67.186 C 63.056 67.013,63.403 66.828,63.670 66.774 C 63.937 66.721,64.309 66.525,64.495 66.339 C 64.681 66.152,64.969 66.000,65.134 66.000 C 65.300 66.000,65.689 65.813,66.000 65.583 C 66.311 65.354,66.691 65.167,66.845 65.167 C 67.000 65.167,67.219 65.055,67.333 64.917 C 67.446 64.780,67.829 64.581,68.184 64.475 C 68.538 64.369,68.953 64.144,69.106 63.974 C 69.260 63.805,69.506 63.667,69.654 63.667 C 69.802 63.667,70.199 63.479,70.536 63.250 C 70.873 63.021,71.255 62.833,71.385 62.833 C 71.515 62.833,71.812 62.683,72.045 62.500 C 72.279 62.317,72.549 62.167,72.647 62.167 C 72.745 62.167,72.949 61.979,73.099 61.750 C 73.280 61.474,73.525 61.333,73.827 61.333 C 74.077 61.333,74.411 61.191,74.568 61.017 C 74.726 60.842,75.114 60.651,75.431 60.592 C 75.748 60.532,76.099 60.337,76.211 60.158 C 76.332 59.963,76.598 59.833,76.875 59.833 C 77.159 59.833,77.475 59.673,77.698 59.417 C 77.914 59.168,78.238 59.000,78.502 59.000 C 78.934 59.000,80.000 57.941,80.000 57.512 C 80.000 57.308,80.976 55.363,81.262 55.000 C 81.370 54.862,81.546 54.475,81.654 54.138 C 81.762 53.802,81.959 53.436,82.092 53.326 C 82.225 53.216,82.333 52.995,82.333 52.835 C 82.333 52.676,82.472 52.366,82.642 52.147 C 82.812 51.929,83.041 51.475,83.151 51.138 C 83.261 50.802,83.459 50.436,83.592 50.326 C 83.906 50.066,83.903 49.396,83.587 49.275 C 83.452 49.223,83.256 48.840,83.151 48.423 C 83.046 48.007,82.901 47.667,82.827 47.667 C 82.754 47.667,82.566 47.330,82.409 46.919 C 82.252 46.508,82.025 46.090,81.906 45.991 C 81.786 45.892,81.636 45.572,81.572 45.280 C 81.509 44.989,81.316 44.571,81.145 44.353 C 80.974 44.134,80.833 43.863,80.833 43.750 C 80.833 43.637,80.694 43.366,80.524 43.147 C 80.354 42.929,80.129 42.485,80.023 42.161 C 79.762 41.359,78.949 40.500,78.452 40.500 C 78.232 40.500,77.923 40.357,77.765 40.183 C 77.607 40.009,77.222 39.818,76.908 39.759 C 76.593 39.700,76.259 39.506,76.163 39.326 C 76.054 39.122,75.814 39.000,75.523 39.000 C 75.243 39.000,74.903 38.835,74.667 38.583 C 74.431 38.333,74.091 38.167,73.813 38.167 C 73.558 38.167,73.290 38.060,73.217 37.929 C 73.024 37.585,71.900 36.855,71.371 36.730 C 71.121 36.671,70.767 36.488,70.583 36.324 C 70.400 36.159,70.047 35.974,69.799 35.913 C 69.550 35.851,69.263 35.699,69.160 35.576 C 69.057 35.452,68.698 35.261,68.362 35.151 C 68.025 35.041,67.571 34.812,67.353 34.642 C 67.134 34.472,66.827 34.333,66.670 34.333 C 66.513 34.333,66.251 34.185,66.086 34.003 C 65.922 33.822,65.540 33.627,65.238 33.570 C 64.936 33.513,64.559 33.324,64.402 33.150 C 64.244 32.976,63.982 32.833,63.820 32.833 C 63.658 32.833,63.303 32.646,63.030 32.417 C 62.758 32.188,62.369 32.000,62.167 32.000 C 61.964 32.000,61.575 31.813,61.303 31.583 C 61.031 31.354,60.644 31.167,60.444 31.167 C 60.244 31.167,59.992 31.026,59.885 30.854 C 59.778 30.682,59.432 30.493,59.118 30.434 C 58.803 30.375,58.411 30.178,58.247 29.997 C 58.083 29.815,57.744 29.667,57.493 29.667 C 57.192 29.667,56.946 29.526,56.765 29.250 C 56.581 28.968,56.340 28.833,56.022 28.833 C 55.763 28.833,55.417 28.685,55.253 28.503 C 55.089 28.322,54.707 28.127,54.405 28.070 C 54.102 28.013,53.726 27.824,53.568 27.650 C 53.411 27.476,53.077 27.333,52.827 27.333 C 52.525 27.333,52.280 27.193,52.099 26.917 C 51.949 26.688,51.745 26.500,51.647 26.500 C 51.549 26.500,51.279 26.350,51.045 26.167 C 50.400 25.659,49.269 25.723,48.315 26.322 M38.403 44.042 C 38.707 44.340,39.014 44.771,39.084 45.000 C 39.155 45.229,39.348 45.590,39.514 45.802 C 39.843 46.225,39.843 46.229,39.252 47.396 C 37.788 50.289,33.333 49.489,33.333 46.335 C 33.333 44.041,36.801 42.473,38.403 44.042 M65.299 44.363 L 66.167 45.226 66.167 46.339 L 66.167 47.452 65.260 48.309 L 64.353 49.167 63.092 49.167 C 61.626 49.167,61.152 48.853,60.415 47.396 C 59.824 46.229,59.823 46.225,60.153 45.802 C 60.319 45.590,60.512 45.229,60.583 45.000 C 60.905 43.954,61.634 43.521,63.091 43.510 L 64.432 43.500 65.299 44.363 M37.926 60.588 C 38.426 61.140,38.725 61.333,39.079 61.333 C 39.342 61.333,39.675 61.435,39.820 61.560 C 40.217 61.901,41.133 62.167,41.916 62.167 C 42.403 62.167,42.706 62.268,42.917 62.500 C 43.137 62.743,43.430 62.833,44.003 62.833 C 44.560 62.833,44.924 62.940,45.254 63.200 C 46.198 63.942,47.456 63.837,48.425 62.934 C 49.557 61.880,50.112 61.880,51.227 62.936 C 52.181 63.839,53.465 63.945,54.413 63.200 C 54.743 62.940,55.107 62.833,55.663 62.833 C 56.237 62.833,56.530 62.743,56.750 62.500 C 56.960 62.268,57.263 62.167,57.751 62.167 C 58.534 62.167,59.449 61.901,59.846 61.560 C 59.991 61.435,60.325 61.333,60.587 61.333 C 60.948 61.333,61.235 61.141,61.758 60.547 C 63.422 58.655,65.827 60.197,64.726 62.450 C 64.335 63.251,63.035 63.451,62.179 62.842 C 61.606 62.434,61.441 62.422,60.942 62.749 C 60.733 62.886,60.192 63.047,59.739 63.108 C 59.287 63.168,58.738 63.356,58.519 63.525 C 58.276 63.714,57.848 63.833,57.417 63.833 C 56.941 63.833,56.559 63.954,56.241 64.203 C 55.902 64.471,55.434 64.606,54.560 64.689 C 53.255 64.814,53.245 64.820,51.914 66.125 L 51.022 67.000 49.833 67.000 L 48.645 67.000 47.753 66.125 C 46.422 64.819,46.423 64.820,45.018 64.678 C 44.023 64.578,43.629 64.462,43.357 64.190 C 43.101 63.935,42.794 63.833,42.272 63.833 C 41.819 63.833,41.395 63.717,41.147 63.525 C 40.929 63.356,40.380 63.168,39.927 63.108 C 39.475 63.047,38.934 62.886,38.725 62.749 C 38.214 62.414,37.889 62.436,37.462 62.833 C 36.910 63.347,35.433 63.307,35.080 62.768 C 33.593 60.499,36.102 58.578,37.926 60.588 " stroke="none" fill="#2086a5" fill-rule="evenodd"></path><path id="path2" d="" stroke="none" fill="#c4100d0" fill-rule="evenodd"></path><path id="path3" d="" stroke="none" fill="#c4100d0" fill-rule="evenodd"></path><path id="path4" d="" stroke="none" fill="#c4100d0" fill-rule="evenodd"></path></g></svg>