<?xml version="1.0" standalone="no"?>
<!DOCTYPE svg PUBLIC "-//W3C//DTD SVG 20010904//EN"
 "http://www.w3.org/TR/2001/REC-SVG-20010904/DTD/svg10.dtd">
<svg version="1.0" xmlns="http://www.w3.org/2000/svg"
 width="2048.000000pt" height="2048.000000pt" viewBox="0 0 2048.000000 2048.000000"
 preserveAspectRatio="xMidYMid meet">

<g transform="translate(0.000000,2048.000000) scale(0.100000,-0.100000)"
fill="#000000" stroke="none">
<path d="M9690 20450 c-326 -17 -433 -28 -840 -80 -235 -31 -758 -121 -781
-135 -4 -3 -59 -16 -121 -29 -289 -61 -738 -189 -1038 -296 -63 -22 -137 -48
-165 -56 -27 -9 -54 -19 -60 -24 -5 -4 -41 -18 -80 -30 -38 -12 -74 -26 -80
-30 -5 -3 -32 -15 -60 -24 -27 -10 -73 -29 -102 -42 -28 -13 -55 -24 -58 -24
-24 0 -452 -197 -680 -313 -77 -39 -158 -80 -180 -91 -22 -11 -42 -23 -45 -26
-3 -3 -30 -18 -60 -33 -30 -15 -86 -46 -125 -68 -38 -23 -101 -59 -140 -82
-163 -94 -336 -204 -533 -336 -62 -42 -125 -84 -140 -93 -15 -10 -36 -24 -47
-33 -32 -24 -144 -106 -217 -158 -36 -26 -72 -53 -80 -59 -7 -7 -44 -37 -83
-66 -112 -84 -127 -96 -149 -117 -11 -11 -41 -35 -66 -54 -25 -19 -65 -52 -90
-73 -66 -59 -78 -69 -160 -138 -41 -35 -97 -85 -125 -110 -27 -26 -86 -80
-130 -121 -198 -183 -553 -549 -710 -733 -27 -32 -62 -72 -77 -90 -69 -80
-216 -257 -238 -286 -14 -18 -37 -47 -51 -64 -14 -17 -36 -47 -49 -66 -13 -19
-27 -37 -30 -40 -9 -7 -173 -229 -196 -265 -10 -16 -22 -32 -25 -35 -5 -4
-122 -175 -239 -350 -38 -57 -90 -142 -90 -146 0 -3 -13 -24 -29 -47 -35 -52
-60 -93 -81 -132 -9 -16 -34 -59 -55 -95 -251 -427 -527 -1004 -701 -1470 -14
-36 -31 -78 -39 -95 -38 -83 -199 -584 -255 -795 -15 -58 -31 -113 -35 -122
-4 -9 -18 -63 -31 -120 -95 -399 -130 -566 -168 -808 -14 -85 -27 -168 -31
-185 -3 -16 -17 -120 -30 -230 -13 -110 -26 -211 -29 -225 -12 -49 -36 -450
-46 -761 -7 -215 -7 -413 0 -620 10 -299 36 -727 46 -762 3 -9 16 -108 29
-220 40 -343 156 -980 207 -1137 6 -19 21 -77 34 -130 21 -91 53 -206 107
-390 34 -117 197 -603 207 -615 4 -5 15 -35 25 -65 10 -30 23 -68 30 -85 46
-106 95 -226 95 -232 0 -5 7 -21 16 -38 9 -16 22 -46 29 -66 7 -20 28 -68 45
-105 18 -38 42 -91 55 -119 88 -194 329 -659 437 -843 15 -26 39 -67 53 -92
31 -54 60 -103 90 -150 161 -253 286 -439 410 -610 33 -45 67 -92 75 -104 22
-32 140 -187 169 -222 14 -17 37 -46 51 -64 64 -83 224 -275 290 -349 14 -15
50 -56 80 -91 189 -217 630 -658 840 -840 47 -40 92 -80 101 -89 9 -9 34 -30
55 -48 22 -17 75 -62 119 -98 149 -124 156 -129 276 -223 87 -67 206 -155 309
-228 30 -21 57 -41 60 -44 17 -19 404 -273 489 -322 19 -11 60 -36 91 -57 31
-21 70 -45 86 -53 16 -8 58 -32 94 -53 275 -162 697 -377 980 -499 291 -127
417 -179 504 -207 33 -11 64 -24 70 -28 6 -5 38 -17 71 -26 33 -10 74 -23 90
-31 17 -7 95 -34 175 -59 80 -26 161 -53 180 -61 19 -7 64 -20 100 -29 36 -9
74 -20 85 -25 25 -11 167 -49 395 -105 345 -84 539 -124 778 -160 89 -14 181
-29 205 -35 23 -5 112 -16 197 -25 85 -9 178 -20 205 -25 203 -38 1140 -62
1600 -41 348 17 818 61 995 95 41 8 127 22 190 31 63 9 132 21 153 26 20 5 94
21 165 34 208 40 524 113 627 145 33 11 87 26 120 34 59 14 212 60 370 110
251 79 717 254 882 332 28 13 55 24 58 24 3 0 32 12 63 26 31 14 82 37 112 51
141 64 460 224 600 301 85 46 180 98 210 115 30 16 71 40 90 52 19 12 64 39
100 60 36 20 81 48 100 60 19 12 59 37 89 56 100 62 246 157 276 179 17 12 95
67 175 123 201 141 195 137 258 187 31 25 75 58 97 74 91 67 459 372 549 455
280 258 565 540 736 726 36 39 84 91 107 117 47 50 209 241 263 308 19 24 47
58 61 75 14 16 73 91 130 165 57 74 107 140 111 145 11 13 70 95 133 185 28
39 64 90 80 113 17 23 40 57 50 75 11 17 23 32 27 32 4 0 8 4 8 10 0 5 28 51
62 102 90 136 124 190 138 218 7 14 16 27 20 30 4 3 17 23 29 45 12 22 38 67
58 100 197 331 452 831 578 1135 13 30 40 93 60 140 20 47 47 115 60 152 13
38 27 74 32 80 16 26 168 462 223 638 23 74 48 158 57 185 60 193 162 618 208
865 14 74 29 148 34 165 5 16 17 86 26 155 9 69 21 141 26 161 5 20 20 135 34
255 13 121 29 257 34 304 48 419 48 1482 1 1915 -36 326 -61 532 -69 563 -6
21 -17 91 -26 157 -9 66 -20 137 -26 157 -5 21 -21 97 -34 170 -14 73 -38 189
-54 258 -16 69 -40 177 -55 240 -15 63 -31 124 -36 135 -5 11 -21 63 -34 115
-78 302 -289 920 -382 1117 -13 28 -24 55 -24 59 0 3 -12 34 -27 68 -14 33
-42 97 -61 141 -54 126 -234 497 -298 615 -42 78 -161 294 -169 308 -5 10 -27
49 -49 87 -40 73 -70 122 -118 192 -15 23 -28 45 -28 49 0 4 -11 21 -24 38
-12 17 -31 46 -41 65 -9 19 -21 39 -26 45 -5 6 -31 45 -59 86 -27 41 -53 80
-57 85 -4 6 -35 50 -68 98 -33 49 -67 98 -75 110 -24 35 -139 190 -157 214
-10 12 -47 61 -83 109 -100 132 -358 446 -440 534 -8 9 -62 69 -120 133 -172
192 -644 654 -792 775 -11 9 -37 32 -57 51 -77 71 -317 266 -507 411 -32 25
-63 49 -69 53 -185 144 -724 505 -845 567 -14 7 -27 16 -30 20 -3 4 -25 18
-50 30 -25 12 -47 26 -50 30 -3 3 -18 13 -35 22 -33 16 -341 184 -365 198 -32
19 -417 208 -450 220 -19 8 -37 17 -40 20 -3 3 -30 16 -60 29 -30 13 -91 39
-135 58 -215 94 -435 181 -580 229 -38 13 -79 28 -90 33 -30 15 -334 114 -480
157 -281 83 -643 171 -900 219 -71 14 -136 27 -144 30 -8 3 -88 17 -179 31
-91 13 -168 26 -171 29 -4 2 -92 13 -196 24 -105 12 -217 26 -250 31 -208 36
-1221 60 -1615 40z m-2370 -3955 c1217 -16 1574 -23 1630 -32 19 -3 114 -46
210 -96 208 -107 629 -326 790 -411 64 -34 155 -81 203 -106 l87 -45 87 45
c48 25 177 93 288 151 207 109 405 212 705 367 96 49 191 92 210 96 50 8 406
15 1590 31 1515 21 1418 21 1471 -2 25 -11 60 -38 79 -60 18 -21 131 -234 252
-473 121 -239 315 -624 433 -855 117 -231 315 -622 440 -870 125 -247 340
-673 478 -945 137 -272 287 -570 333 -661 46 -91 89 -171 96 -177 8 -6 59 -34
113 -62 55 -29 145 -76 200 -105 55 -29 190 -99 300 -155 110 -56 245 -126
300 -155 291 -153 418 -216 425 -208 8 8 110 208 595 1168 119 237 229 446
245 465 116 148 362 97 416 -85 22 -79 14 -117 -55 -254 -32 -64 -183 -363
-336 -666 -478 -943 -748 -1478 -922 -1822 l-168 -333 168 -332 c174 -345 444
-880 922 -1823 153 -302 304 -602 336 -666 69 -137 77 -175 55 -254 -54 -182
-300 -233 -416 -85 -16 19 -126 229 -245 465 -486 962 -587 1160 -595 1168 -7
8 -158 -67 -435 -213 -49 -26 -180 -94 -290 -150 -110 -56 -245 -126 -300
-155 -55 -29 -145 -76 -200 -105 -54 -28 -105 -56 -113 -62 -7 -6 -50 -86 -96
-177 -46 -91 -196 -389 -333 -661 -138 -272 -353 -697 -478 -945 -125 -247
-324 -641 -443 -875 -119 -234 -313 -618 -433 -854 -119 -237 -231 -448 -249
-469 -18 -22 -54 -49 -79 -60 -53 -23 44 -23 -1471 -2 -1184 16 -1540 23
-1590 31 -19 4 -114 47 -210 97 -325 167 -504 260 -705 366 -111 58 -240 126
-288 151 l-87 45 -87 -45 c-48 -25 -139 -72 -203 -106 -161 -85 -582 -304
-790 -411 -96 -50 -191 -93 -210 -97 -50 -8 -402 -15 -1595 -31 -1518 -21
-1413 -21 -1466 2 -25 11 -61 38 -79 60 -18 21 -130 232 -250 469 -119 236
-316 625 -437 864 -121 239 -322 635 -446 880 -123 245 -336 666 -472 935
-136 270 -285 565 -331 656 -46 91 -89 171 -96 177 -8 6 -59 34 -113 62 -55
29 -145 76 -200 105 -55 29 -190 99 -300 155 -110 56 -240 124 -290 150 -262
139 -429 220 -436 213 -4 -4 -128 -246 -275 -538 -540 -1069 -539 -1068 -581
-1111 -74 -76 -179 -92 -278 -43 -61 30 -102 80 -121 148 -23 76 -13 115 62
266 61 119 271 535 861 1700 122 242 298 590 390 773 l168 332 -168 333 c-92
182 -268 530 -390 772 -608 1200 -825 1629 -873 1726 -64 127 -72 167 -50 244
32 107 145 185 252 172 60 -6 131 -44 164 -87 16 -19 126 -228 245 -465 513
-1013 587 -1160 595 -1168 6 -7 174 75 435 213 50 26 180 94 290 150 110 56
245 126 300 155 55 29 145 76 200 105 54 28 105 56 113 62 7 6 50 86 96 177
46 91 189 375 318 631 129 256 353 699 498 985 144 286 329 651 410 810 81
160 266 524 410 810 144 286 274 535 289 554 62 78 118 98 273 94 57 -2 618
-10 1248 -18z"/>
<path d="M10065 15170 c-93 -50 -246 -129 -340 -177 -93 -47 -174 -89 -180
-93 -9 -6 -287 -151 -720 -374 -71 -37 -175 -91 -230 -120 -95 -49 -288 -150
-530 -276 -60 -32 -177 -92 -260 -135 -82 -43 -204 -106 -270 -140 -218 -114
-496 -258 -810 -420 -93 -48 -197 -102 -230 -120 -33 -18 -139 -73 -235 -123
-230 -118 -425 -219 -530 -274 -47 -25 -166 -87 -265 -138 -99 -51 -211 -109
-250 -130 -67 -36 -283 -148 -520 -270 -60 -32 -173 -90 -250 -130 -77 -40
-176 -92 -219 -114 l-79 -41 -101 -200 c-56 -110 -267 -527 -470 -927 l-367
-728 367 -727 c203 -401 414 -818 470 -928 l101 -200 79 -41 c43 -22 142 -74
219 -114 77 -40 190 -98 250 -130 237 -122 453 -234 520 -270 39 -21 151 -79
250 -130 99 -51 218 -113 265 -138 105 -55 300 -156 530 -274 96 -50 202 -105
235 -123 33 -18 137 -72 230 -120 314 -162 592 -306 810 -420 66 -34 188 -97
270 -140 83 -43 200 -103 260 -135 262 -136 437 -227 530 -276 55 -29 172 -90
260 -135 88 -45 257 -132 375 -194 269 -140 447 -233 620 -322 74 -39 192
-101 263 -138 l127 -67 128 67 c70 37 197 104 282 148 85 44 252 130 370 192
272 142 448 233 625 324 77 40 185 96 240 125 55 29 177 92 270 140 94 49 202
105 240 126 39 21 156 81 260 135 105 54 235 121 290 150 55 29 168 88 250
130 336 174 397 206 560 290 94 48 197 102 230 120 33 18 132 70 220 115 383
197 464 240 538 279 43 23 171 89 285 147 114 59 230 119 257 134 47 26 239
126 500 260 61 32 173 90 250 130 77 40 176 92 219 114 l80 41 96 190 c52 105
263 522 468 927 l373 738 -373 737 c-205 406 -416 824 -468 928 l-96 190 -80
41 c-43 22 -142 74 -219 114 -77 40 -189 98 -250 130 -261 134 -453 234 -500
260 -27 15 -143 75 -257 134 -114 58 -242 124 -285 147 -74 39 -155 82 -538
279 -88 45 -187 97 -220 115 -33 18 -136 72 -230 120 -163 84 -224 116 -560
290 -82 42 -195 101 -250 130 -55 29 -185 96 -290 150 -104 54 -221 114 -260
135 -38 21 -146 77 -240 126 -93 48 -215 111 -270 140 -55 29 -185 96 -290
150 -104 53 -194 100 -200 104 -5 4 -109 58 -230 120 -121 62 -224 116 -230
120 -5 4 -86 46 -180 93 -93 48 -246 127 -340 177 -93 49 -172 90 -175 90 -3
0 -81 -41 -175 -90z m-2386 -3683 c193 -67 334 -221 381 -417 24 -100 25 -160
5 -254 -85 -400 -544 -591 -887 -368 -90 60 -157 134 -202 227 -67 138 -81
262 -46 400 56 221 230 387 455 435 72 16 213 5 294 -23z m5493 0 c150 -55
263 -152 331 -288 88 -172 88 -345 1 -524 -108 -222 -359 -354 -603 -316 -510
79 -677 727 -269 1037 72 54 125 80 218 106 91 25 230 19 322 -15z m-5558
-3330 c31 -14 77 -47 102 -72 46 -47 94 -133 94 -170 0 -11 4 -26 9 -33 7 -11
396 -136 536 -172 17 -4 84 -24 150 -44 111 -33 823 -244 1085 -321 63 -19
137 -41 163 -49 47 -14 48 -14 56 8 40 104 86 167 166 226 151 111 379 111
530 0 80 -59 126 -122 166 -226 8 -22 9 -22 56 -8 26 8 100 30 163 49 63 18
306 90 540 159 234 70 488 145 565 167 77 23 158 47 180 54 22 7 128 38 235
70 263 77 246 68 259 122 27 106 101 195 198 241 49 23 71 27 143 27 103 -1
170 -27 242 -97 135 -132 140 -346 11 -488 -68 -75 -136 -103 -248 -104 -83
-1 -96 2 -157 32 -44 22 -82 50 -111 83 l-44 50 -119 -35 c-191 -55 -358 -104
-529 -156 -88 -26 -270 -80 -405 -120 -135 -39 -272 -80 -305 -90 -33 -10 -98
-30 -145 -43 -47 -14 -181 -54 -299 -89 l-215 -64 -23 -69 c-29 -87 -93 -170
-170 -223 -91 -61 -143 -77 -253 -77 -110 0 -162 16 -253 77 -77 53 -141 136
-170 223 -22 66 -26 70 -63 81 -188 57 -498 148 -534 159 -25 7 -124 36 -220
65 -96 29 -251 74 -345 102 -148 43 -421 124 -773 229 l-104 31 -44 -50 c-30
-34 -67 -62 -112 -84 -61 -30 -74 -33 -157 -32 -78 0 -98 4 -148 29 -105 52
-179 161 -194 286 -19 158 103 328 264 369 64 16 164 6 227 -23z"/>
</g>
</svg>
